<mxfile host="Electron" modified="2024-05-05T15:40:56.268Z" agent="Mozilla/5.0 (Windows NT 10.0; Win64; x64) AppleWebKit/537.36 (KHTML, like Gecko) draw.io/24.0.4 Chrome/120.0.6099.109 Electron/28.1.0 Safari/537.36" etag="DpF9HeS89OIDuaV5OlCo" version="24.0.4" type="device">
  <diagram name="Страница — 1" id="z9UoEFOjC3JPsyZrH2r5">
    <mxGraphModel dx="1886" dy="836" grid="1" gridSize="10" guides="1" tooltips="1" connect="1" arrows="1" fold="1" page="1" pageScale="1" pageWidth="1654" pageHeight="1169" math="0" shadow="0">
      <root>
        <mxCell id="0" />
        <mxCell id="1" parent="0" />
        <mxCell id="l4ZB_OVi-BwUIu6IKp14-10" value="" style="group" parent="1" vertex="1" connectable="0">
          <mxGeometry x="20" y="20" width="220" height="150" as="geometry" />
        </mxCell>
        <mxCell id="l4ZB_OVi-BwUIu6IKp14-3" value="" style="verticalLabelPosition=bottom;verticalAlign=top;html=1;shape=mxgraph.basic.frame;dx=10;whiteSpace=wrap;" parent="l4ZB_OVi-BwUIu6IKp14-10" vertex="1">
          <mxGeometry width="220.00000000000003" height="150" as="geometry" />
        </mxCell>
        <mxCell id="l4ZB_OVi-BwUIu6IKp14-4" value="Log In" style="labelPosition=center;verticalLabelPosition=middle;align=center;html=1;shape=mxgraph.basic.button;dx=5.19;whiteSpace=wrap;" parent="l4ZB_OVi-BwUIu6IKp14-10" vertex="1">
          <mxGeometry x="150" y="90" width="51.76" height="40" as="geometry" />
        </mxCell>
        <mxCell id="l4ZB_OVi-BwUIu6IKp14-5" value="Email:" style="text;html=1;align=center;verticalAlign=middle;whiteSpace=wrap;rounded=0;fontSize=17;" parent="l4ZB_OVi-BwUIu6IKp14-10" vertex="1">
          <mxGeometry x="20.001176470588234" y="18" width="38.82352941176471" height="30" as="geometry" />
        </mxCell>
        <mxCell id="l4ZB_OVi-BwUIu6IKp14-6" value="Pass:" style="text;html=1;align=center;verticalAlign=middle;whiteSpace=wrap;rounded=0;fontSize=17;" parent="l4ZB_OVi-BwUIu6IKp14-10" vertex="1">
          <mxGeometry x="20.001176470588234" y="49" width="38.82352941176471" height="30" as="geometry" />
        </mxCell>
        <mxCell id="l4ZB_OVi-BwUIu6IKp14-7" value="" style="shape=ext;double=1;rounded=0;whiteSpace=wrap;html=1;" parent="l4ZB_OVi-BwUIu6IKp14-10" vertex="1">
          <mxGeometry x="70" y="24" width="130" height="20" as="geometry" />
        </mxCell>
        <mxCell id="l4ZB_OVi-BwUIu6IKp14-9" value="" style="shape=ext;double=1;rounded=0;whiteSpace=wrap;html=1;" parent="l4ZB_OVi-BwUIu6IKp14-10" vertex="1">
          <mxGeometry x="70" y="54" width="130" height="20" as="geometry" />
        </mxCell>
        <mxCell id="l4ZB_OVi-BwUIu6IKp14-11" value="" style="verticalLabelPosition=bottom;verticalAlign=top;html=1;shape=mxgraph.basic.frame;dx=10;whiteSpace=wrap;" parent="1" vertex="1">
          <mxGeometry x="280" y="20" width="520" height="360" as="geometry" />
        </mxCell>
        <mxCell id="AH4Sky3rlhgojyti313X-1" value="department" style="shape=table;startSize=30;container=1;collapsible=1;childLayout=tableLayout;fixedRows=1;rowLines=0;fontStyle=1;align=center;resizeLast=1;html=1;" parent="1" vertex="1">
          <mxGeometry x="30" y="210" width="180" height="210" as="geometry" />
        </mxCell>
        <mxCell id="AH4Sky3rlhgojyti313X-2" value="" style="shape=tableRow;horizontal=0;startSize=0;swimlaneHead=0;swimlaneBody=0;fillColor=none;collapsible=0;dropTarget=0;points=[[0,0.5],[1,0.5]];portConstraint=eastwest;top=0;left=0;right=0;bottom=1;" parent="AH4Sky3rlhgojyti313X-1" vertex="1">
          <mxGeometry y="30" width="180" height="30" as="geometry" />
        </mxCell>
        <mxCell id="AH4Sky3rlhgojyti313X-3" value="PK" style="shape=partialRectangle;connectable=0;fillColor=none;top=0;left=0;bottom=0;right=0;fontStyle=1;overflow=hidden;whiteSpace=wrap;html=1;" parent="AH4Sky3rlhgojyti313X-2" vertex="1">
          <mxGeometry width="30" height="30" as="geometry">
            <mxRectangle width="30" height="30" as="alternateBounds" />
          </mxGeometry>
        </mxCell>
        <mxCell id="AH4Sky3rlhgojyti313X-4" value="id" style="shape=partialRectangle;connectable=0;fillColor=none;top=0;left=0;bottom=0;right=0;align=left;spacingLeft=6;fontStyle=5;overflow=hidden;whiteSpace=wrap;html=1;" parent="AH4Sky3rlhgojyti313X-2" vertex="1">
          <mxGeometry x="30" width="150" height="30" as="geometry">
            <mxRectangle width="150" height="30" as="alternateBounds" />
          </mxGeometry>
        </mxCell>
        <mxCell id="AH4Sky3rlhgojyti313X-5" value="" style="shape=tableRow;horizontal=0;startSize=0;swimlaneHead=0;swimlaneBody=0;fillColor=none;collapsible=0;dropTarget=0;points=[[0,0.5],[1,0.5]];portConstraint=eastwest;top=0;left=0;right=0;bottom=0;" parent="AH4Sky3rlhgojyti313X-1" vertex="1">
          <mxGeometry y="60" width="180" height="30" as="geometry" />
        </mxCell>
        <mxCell id="AH4Sky3rlhgojyti313X-6" value="" style="shape=partialRectangle;connectable=0;fillColor=none;top=0;left=0;bottom=0;right=0;editable=1;overflow=hidden;whiteSpace=wrap;html=1;" parent="AH4Sky3rlhgojyti313X-5" vertex="1">
          <mxGeometry width="30" height="30" as="geometry">
            <mxRectangle width="30" height="30" as="alternateBounds" />
          </mxGeometry>
        </mxCell>
        <mxCell id="AH4Sky3rlhgojyti313X-7" value="city" style="shape=partialRectangle;connectable=0;fillColor=none;top=0;left=0;bottom=0;right=0;align=left;spacingLeft=6;overflow=hidden;whiteSpace=wrap;html=1;" parent="AH4Sky3rlhgojyti313X-5" vertex="1">
          <mxGeometry x="30" width="150" height="30" as="geometry">
            <mxRectangle width="150" height="30" as="alternateBounds" />
          </mxGeometry>
        </mxCell>
        <mxCell id="AH4Sky3rlhgojyti313X-8" value="" style="shape=tableRow;horizontal=0;startSize=0;swimlaneHead=0;swimlaneBody=0;fillColor=none;collapsible=0;dropTarget=0;points=[[0,0.5],[1,0.5]];portConstraint=eastwest;top=0;left=0;right=0;bottom=0;" parent="AH4Sky3rlhgojyti313X-1" vertex="1">
          <mxGeometry y="90" width="180" height="30" as="geometry" />
        </mxCell>
        <mxCell id="AH4Sky3rlhgojyti313X-9" value="" style="shape=partialRectangle;connectable=0;fillColor=none;top=0;left=0;bottom=0;right=0;editable=1;overflow=hidden;whiteSpace=wrap;html=1;" parent="AH4Sky3rlhgojyti313X-8" vertex="1">
          <mxGeometry width="30" height="30" as="geometry">
            <mxRectangle width="30" height="30" as="alternateBounds" />
          </mxGeometry>
        </mxCell>
        <mxCell id="AH4Sky3rlhgojyti313X-10" value="address" style="shape=partialRectangle;connectable=0;fillColor=none;top=0;left=0;bottom=0;right=0;align=left;spacingLeft=6;overflow=hidden;whiteSpace=wrap;html=1;" parent="AH4Sky3rlhgojyti313X-8" vertex="1">
          <mxGeometry x="30" width="150" height="30" as="geometry">
            <mxRectangle width="150" height="30" as="alternateBounds" />
          </mxGeometry>
        </mxCell>
        <mxCell id="AH4Sky3rlhgojyti313X-11" value="" style="shape=tableRow;horizontal=0;startSize=0;swimlaneHead=0;swimlaneBody=0;fillColor=none;collapsible=0;dropTarget=0;points=[[0,0.5],[1,0.5]];portConstraint=eastwest;top=0;left=0;right=0;bottom=0;" parent="AH4Sky3rlhgojyti313X-1" vertex="1">
          <mxGeometry y="120" width="180" height="30" as="geometry" />
        </mxCell>
        <mxCell id="AH4Sky3rlhgojyti313X-12" value="" style="shape=partialRectangle;connectable=0;fillColor=none;top=0;left=0;bottom=0;right=0;editable=1;overflow=hidden;whiteSpace=wrap;html=1;" parent="AH4Sky3rlhgojyti313X-11" vertex="1">
          <mxGeometry width="30" height="30" as="geometry">
            <mxRectangle width="30" height="30" as="alternateBounds" />
          </mxGeometry>
        </mxCell>
        <mxCell id="AH4Sky3rlhgojyti313X-13" value="zip_code" style="shape=partialRectangle;connectable=0;fillColor=none;top=0;left=0;bottom=0;right=0;align=left;spacingLeft=6;overflow=hidden;whiteSpace=wrap;html=1;" parent="AH4Sky3rlhgojyti313X-11" vertex="1">
          <mxGeometry x="30" width="150" height="30" as="geometry">
            <mxRectangle width="150" height="30" as="alternateBounds" />
          </mxGeometry>
        </mxCell>
        <mxCell id="AH4Sky3rlhgojyti313X-20" style="shape=tableRow;horizontal=0;startSize=0;swimlaneHead=0;swimlaneBody=0;fillColor=none;collapsible=0;dropTarget=0;points=[[0,0.5],[1,0.5]];portConstraint=eastwest;top=0;left=0;right=0;bottom=0;" parent="AH4Sky3rlhgojyti313X-1" vertex="1">
          <mxGeometry y="150" width="180" height="30" as="geometry" />
        </mxCell>
        <mxCell id="AH4Sky3rlhgojyti313X-21" style="shape=partialRectangle;connectable=0;fillColor=none;top=0;left=0;bottom=0;right=0;editable=1;overflow=hidden;whiteSpace=wrap;html=1;" parent="AH4Sky3rlhgojyti313X-20" vertex="1">
          <mxGeometry width="30" height="30" as="geometry">
            <mxRectangle width="30" height="30" as="alternateBounds" />
          </mxGeometry>
        </mxCell>
        <mxCell id="AH4Sky3rlhgojyti313X-22" value="phone" style="shape=partialRectangle;connectable=0;fillColor=none;top=0;left=0;bottom=0;right=0;align=left;spacingLeft=6;overflow=hidden;whiteSpace=wrap;html=1;" parent="AH4Sky3rlhgojyti313X-20" vertex="1">
          <mxGeometry x="30" width="150" height="30" as="geometry">
            <mxRectangle width="150" height="30" as="alternateBounds" />
          </mxGeometry>
        </mxCell>
        <mxCell id="AH4Sky3rlhgojyti313X-17" style="shape=tableRow;horizontal=0;startSize=0;swimlaneHead=0;swimlaneBody=0;fillColor=none;collapsible=0;dropTarget=0;points=[[0,0.5],[1,0.5]];portConstraint=eastwest;top=0;left=0;right=0;bottom=0;" parent="AH4Sky3rlhgojyti313X-1" vertex="1">
          <mxGeometry y="180" width="180" height="30" as="geometry" />
        </mxCell>
        <mxCell id="AH4Sky3rlhgojyti313X-18" style="shape=partialRectangle;connectable=0;fillColor=none;top=0;left=0;bottom=0;right=0;editable=1;overflow=hidden;whiteSpace=wrap;html=1;" parent="AH4Sky3rlhgojyti313X-17" vertex="1">
          <mxGeometry width="30" height="30" as="geometry">
            <mxRectangle width="30" height="30" as="alternateBounds" />
          </mxGeometry>
        </mxCell>
        <mxCell id="AH4Sky3rlhgojyti313X-19" value="email" style="shape=partialRectangle;connectable=0;fillColor=none;top=0;left=0;bottom=0;right=0;align=left;spacingLeft=6;overflow=hidden;whiteSpace=wrap;html=1;" parent="AH4Sky3rlhgojyti313X-17" vertex="1">
          <mxGeometry x="30" width="150" height="30" as="geometry">
            <mxRectangle width="150" height="30" as="alternateBounds" />
          </mxGeometry>
        </mxCell>
        <mxCell id="AH4Sky3rlhgojyti313X-27" value="" style="verticalLabelPosition=bottom;verticalAlign=top;html=1;shape=mxgraph.basic.frame;dx=10;whiteSpace=wrap;" parent="1" vertex="1">
          <mxGeometry x="280" y="395" width="520" height="330" as="geometry" />
        </mxCell>
        <mxCell id="AH4Sky3rlhgojyti313X-29" value="employee" style="shape=table;startSize=30;container=1;collapsible=1;childLayout=tableLayout;fixedRows=1;rowLines=0;fontStyle=1;align=center;resizeLast=1;html=1;" parent="1" vertex="1">
          <mxGeometry x="1400" y="124" width="180" height="450" as="geometry" />
        </mxCell>
        <mxCell id="AH4Sky3rlhgojyti313X-30" value="" style="shape=tableRow;horizontal=0;startSize=0;swimlaneHead=0;swimlaneBody=0;fillColor=none;collapsible=0;dropTarget=0;points=[[0,0.5],[1,0.5]];portConstraint=eastwest;top=0;left=0;right=0;bottom=1;" parent="AH4Sky3rlhgojyti313X-29" vertex="1">
          <mxGeometry y="30" width="180" height="30" as="geometry" />
        </mxCell>
        <mxCell id="AH4Sky3rlhgojyti313X-31" value="PK" style="shape=partialRectangle;connectable=0;fillColor=none;top=0;left=0;bottom=0;right=0;fontStyle=1;overflow=hidden;whiteSpace=wrap;html=1;" parent="AH4Sky3rlhgojyti313X-30" vertex="1">
          <mxGeometry width="30" height="30" as="geometry">
            <mxRectangle width="30" height="30" as="alternateBounds" />
          </mxGeometry>
        </mxCell>
        <mxCell id="AH4Sky3rlhgojyti313X-32" value="id" style="shape=partialRectangle;connectable=0;fillColor=none;top=0;left=0;bottom=0;right=0;align=left;spacingLeft=6;fontStyle=5;overflow=hidden;whiteSpace=wrap;html=1;" parent="AH4Sky3rlhgojyti313X-30" vertex="1">
          <mxGeometry x="30" width="150" height="30" as="geometry">
            <mxRectangle width="150" height="30" as="alternateBounds" />
          </mxGeometry>
        </mxCell>
        <mxCell id="AH4Sky3rlhgojyti313X-33" value="" style="shape=tableRow;horizontal=0;startSize=0;swimlaneHead=0;swimlaneBody=0;fillColor=none;collapsible=0;dropTarget=0;points=[[0,0.5],[1,0.5]];portConstraint=eastwest;top=0;left=0;right=0;bottom=0;" parent="AH4Sky3rlhgojyti313X-29" vertex="1">
          <mxGeometry y="60" width="180" height="30" as="geometry" />
        </mxCell>
        <mxCell id="AH4Sky3rlhgojyti313X-34" value="FK" style="shape=partialRectangle;connectable=0;fillColor=none;top=0;left=0;bottom=0;right=0;editable=1;overflow=hidden;whiteSpace=wrap;html=1;" parent="AH4Sky3rlhgojyti313X-33" vertex="1">
          <mxGeometry width="30" height="30" as="geometry">
            <mxRectangle width="30" height="30" as="alternateBounds" />
          </mxGeometry>
        </mxCell>
        <mxCell id="AH4Sky3rlhgojyti313X-35" value="department_id" style="shape=partialRectangle;connectable=0;fillColor=none;top=0;left=0;bottom=0;right=0;align=left;spacingLeft=6;overflow=hidden;whiteSpace=wrap;html=1;" parent="AH4Sky3rlhgojyti313X-33" vertex="1">
          <mxGeometry x="30" width="150" height="30" as="geometry">
            <mxRectangle width="150" height="30" as="alternateBounds" />
          </mxGeometry>
        </mxCell>
        <mxCell id="AH4Sky3rlhgojyti313X-36" value="" style="shape=tableRow;horizontal=0;startSize=0;swimlaneHead=0;swimlaneBody=0;fillColor=none;collapsible=0;dropTarget=0;points=[[0,0.5],[1,0.5]];portConstraint=eastwest;top=0;left=0;right=0;bottom=0;" parent="AH4Sky3rlhgojyti313X-29" vertex="1">
          <mxGeometry y="90" width="180" height="30" as="geometry" />
        </mxCell>
        <mxCell id="AH4Sky3rlhgojyti313X-37" value="FK" style="shape=partialRectangle;connectable=0;fillColor=none;top=0;left=0;bottom=0;right=0;editable=1;overflow=hidden;whiteSpace=wrap;html=1;" parent="AH4Sky3rlhgojyti313X-36" vertex="1">
          <mxGeometry width="30" height="30" as="geometry">
            <mxRectangle width="30" height="30" as="alternateBounds" />
          </mxGeometry>
        </mxCell>
        <mxCell id="AH4Sky3rlhgojyti313X-38" value="role_id" style="shape=partialRectangle;connectable=0;fillColor=none;top=0;left=0;bottom=0;right=0;align=left;spacingLeft=6;overflow=hidden;whiteSpace=wrap;html=1;" parent="AH4Sky3rlhgojyti313X-36" vertex="1">
          <mxGeometry x="30" width="150" height="30" as="geometry">
            <mxRectangle width="150" height="30" as="alternateBounds" />
          </mxGeometry>
        </mxCell>
        <mxCell id="AH4Sky3rlhgojyti313X-39" value="" style="shape=tableRow;horizontal=0;startSize=0;swimlaneHead=0;swimlaneBody=0;fillColor=none;collapsible=0;dropTarget=0;points=[[0,0.5],[1,0.5]];portConstraint=eastwest;top=0;left=0;right=0;bottom=0;" parent="AH4Sky3rlhgojyti313X-29" vertex="1">
          <mxGeometry y="120" width="180" height="30" as="geometry" />
        </mxCell>
        <mxCell id="AH4Sky3rlhgojyti313X-40" value="" style="shape=partialRectangle;connectable=0;fillColor=none;top=0;left=0;bottom=0;right=0;editable=1;overflow=hidden;whiteSpace=wrap;html=1;" parent="AH4Sky3rlhgojyti313X-39" vertex="1">
          <mxGeometry width="30" height="30" as="geometry">
            <mxRectangle width="30" height="30" as="alternateBounds" />
          </mxGeometry>
        </mxCell>
        <mxCell id="AH4Sky3rlhgojyti313X-41" value="firstname" style="shape=partialRectangle;connectable=0;fillColor=none;top=0;left=0;bottom=0;right=0;align=left;spacingLeft=6;overflow=hidden;whiteSpace=wrap;html=1;" parent="AH4Sky3rlhgojyti313X-39" vertex="1">
          <mxGeometry x="30" width="150" height="30" as="geometry">
            <mxRectangle width="150" height="30" as="alternateBounds" />
          </mxGeometry>
        </mxCell>
        <mxCell id="AH4Sky3rlhgojyti313X-42" style="shape=tableRow;horizontal=0;startSize=0;swimlaneHead=0;swimlaneBody=0;fillColor=none;collapsible=0;dropTarget=0;points=[[0,0.5],[1,0.5]];portConstraint=eastwest;top=0;left=0;right=0;bottom=0;" parent="AH4Sky3rlhgojyti313X-29" vertex="1">
          <mxGeometry y="150" width="180" height="30" as="geometry" />
        </mxCell>
        <mxCell id="AH4Sky3rlhgojyti313X-43" style="shape=partialRectangle;connectable=0;fillColor=none;top=0;left=0;bottom=0;right=0;editable=1;overflow=hidden;whiteSpace=wrap;html=1;" parent="AH4Sky3rlhgojyti313X-42" vertex="1">
          <mxGeometry width="30" height="30" as="geometry">
            <mxRectangle width="30" height="30" as="alternateBounds" />
          </mxGeometry>
        </mxCell>
        <mxCell id="AH4Sky3rlhgojyti313X-44" value="middlename" style="shape=partialRectangle;connectable=0;fillColor=none;top=0;left=0;bottom=0;right=0;align=left;spacingLeft=6;overflow=hidden;whiteSpace=wrap;html=1;" parent="AH4Sky3rlhgojyti313X-42" vertex="1">
          <mxGeometry x="30" width="150" height="30" as="geometry">
            <mxRectangle width="150" height="30" as="alternateBounds" />
          </mxGeometry>
        </mxCell>
        <mxCell id="AH4Sky3rlhgojyti313X-45" style="shape=tableRow;horizontal=0;startSize=0;swimlaneHead=0;swimlaneBody=0;fillColor=none;collapsible=0;dropTarget=0;points=[[0,0.5],[1,0.5]];portConstraint=eastwest;top=0;left=0;right=0;bottom=0;" parent="AH4Sky3rlhgojyti313X-29" vertex="1">
          <mxGeometry y="180" width="180" height="30" as="geometry" />
        </mxCell>
        <mxCell id="AH4Sky3rlhgojyti313X-46" style="shape=partialRectangle;connectable=0;fillColor=none;top=0;left=0;bottom=0;right=0;editable=1;overflow=hidden;whiteSpace=wrap;html=1;" parent="AH4Sky3rlhgojyti313X-45" vertex="1">
          <mxGeometry width="30" height="30" as="geometry">
            <mxRectangle width="30" height="30" as="alternateBounds" />
          </mxGeometry>
        </mxCell>
        <mxCell id="AH4Sky3rlhgojyti313X-47" value="lastname" style="shape=partialRectangle;connectable=0;fillColor=none;top=0;left=0;bottom=0;right=0;align=left;spacingLeft=6;overflow=hidden;whiteSpace=wrap;html=1;" parent="AH4Sky3rlhgojyti313X-45" vertex="1">
          <mxGeometry x="30" width="150" height="30" as="geometry">
            <mxRectangle width="150" height="30" as="alternateBounds" />
          </mxGeometry>
        </mxCell>
        <mxCell id="AH4Sky3rlhgojyti313X-81" style="shape=tableRow;horizontal=0;startSize=0;swimlaneHead=0;swimlaneBody=0;fillColor=none;collapsible=0;dropTarget=0;points=[[0,0.5],[1,0.5]];portConstraint=eastwest;top=0;left=0;right=0;bottom=0;" parent="AH4Sky3rlhgojyti313X-29" vertex="1">
          <mxGeometry y="210" width="180" height="30" as="geometry" />
        </mxCell>
        <mxCell id="AH4Sky3rlhgojyti313X-82" style="shape=partialRectangle;connectable=0;fillColor=none;top=0;left=0;bottom=0;right=0;editable=1;overflow=hidden;whiteSpace=wrap;html=1;" parent="AH4Sky3rlhgojyti313X-81" vertex="1">
          <mxGeometry width="30" height="30" as="geometry">
            <mxRectangle width="30" height="30" as="alternateBounds" />
          </mxGeometry>
        </mxCell>
        <mxCell id="AH4Sky3rlhgojyti313X-83" value="sex" style="shape=partialRectangle;connectable=0;fillColor=none;top=0;left=0;bottom=0;right=0;align=left;spacingLeft=6;overflow=hidden;whiteSpace=wrap;html=1;" parent="AH4Sky3rlhgojyti313X-81" vertex="1">
          <mxGeometry x="30" width="150" height="30" as="geometry">
            <mxRectangle width="150" height="30" as="alternateBounds" />
          </mxGeometry>
        </mxCell>
        <mxCell id="AH4Sky3rlhgojyti313X-78" style="shape=tableRow;horizontal=0;startSize=0;swimlaneHead=0;swimlaneBody=0;fillColor=none;collapsible=0;dropTarget=0;points=[[0,0.5],[1,0.5]];portConstraint=eastwest;top=0;left=0;right=0;bottom=0;" parent="AH4Sky3rlhgojyti313X-29" vertex="1">
          <mxGeometry y="240" width="180" height="30" as="geometry" />
        </mxCell>
        <mxCell id="AH4Sky3rlhgojyti313X-79" style="shape=partialRectangle;connectable=0;fillColor=none;top=0;left=0;bottom=0;right=0;editable=1;overflow=hidden;whiteSpace=wrap;html=1;" parent="AH4Sky3rlhgojyti313X-78" vertex="1">
          <mxGeometry width="30" height="30" as="geometry">
            <mxRectangle width="30" height="30" as="alternateBounds" />
          </mxGeometry>
        </mxCell>
        <mxCell id="AH4Sky3rlhgojyti313X-80" value="birth_date" style="shape=partialRectangle;connectable=0;fillColor=none;top=0;left=0;bottom=0;right=0;align=left;spacingLeft=6;overflow=hidden;whiteSpace=wrap;html=1;" parent="AH4Sky3rlhgojyti313X-78" vertex="1">
          <mxGeometry x="30" width="150" height="30" as="geometry">
            <mxRectangle width="150" height="30" as="alternateBounds" />
          </mxGeometry>
        </mxCell>
        <mxCell id="AH4Sky3rlhgojyti313X-75" style="shape=tableRow;horizontal=0;startSize=0;swimlaneHead=0;swimlaneBody=0;fillColor=none;collapsible=0;dropTarget=0;points=[[0,0.5],[1,0.5]];portConstraint=eastwest;top=0;left=0;right=0;bottom=0;" parent="AH4Sky3rlhgojyti313X-29" vertex="1">
          <mxGeometry y="270" width="180" height="30" as="geometry" />
        </mxCell>
        <mxCell id="AH4Sky3rlhgojyti313X-76" style="shape=partialRectangle;connectable=0;fillColor=none;top=0;left=0;bottom=0;right=0;editable=1;overflow=hidden;whiteSpace=wrap;html=1;" parent="AH4Sky3rlhgojyti313X-75" vertex="1">
          <mxGeometry width="30" height="30" as="geometry">
            <mxRectangle width="30" height="30" as="alternateBounds" />
          </mxGeometry>
        </mxCell>
        <mxCell id="AH4Sky3rlhgojyti313X-77" value="experience" style="shape=partialRectangle;connectable=0;fillColor=none;top=0;left=0;bottom=0;right=0;align=left;spacingLeft=6;overflow=hidden;whiteSpace=wrap;html=1;" parent="AH4Sky3rlhgojyti313X-75" vertex="1">
          <mxGeometry x="30" width="150" height="30" as="geometry">
            <mxRectangle width="150" height="30" as="alternateBounds" />
          </mxGeometry>
        </mxCell>
        <mxCell id="AH4Sky3rlhgojyti313X-72" style="shape=tableRow;horizontal=0;startSize=0;swimlaneHead=0;swimlaneBody=0;fillColor=none;collapsible=0;dropTarget=0;points=[[0,0.5],[1,0.5]];portConstraint=eastwest;top=0;left=0;right=0;bottom=0;" parent="AH4Sky3rlhgojyti313X-29" vertex="1">
          <mxGeometry y="300" width="180" height="30" as="geometry" />
        </mxCell>
        <mxCell id="AH4Sky3rlhgojyti313X-73" style="shape=partialRectangle;connectable=0;fillColor=none;top=0;left=0;bottom=0;right=0;editable=1;overflow=hidden;whiteSpace=wrap;html=1;" parent="AH4Sky3rlhgojyti313X-72" vertex="1">
          <mxGeometry width="30" height="30" as="geometry">
            <mxRectangle width="30" height="30" as="alternateBounds" />
          </mxGeometry>
        </mxCell>
        <mxCell id="AH4Sky3rlhgojyti313X-74" value="address" style="shape=partialRectangle;connectable=0;fillColor=none;top=0;left=0;bottom=0;right=0;align=left;spacingLeft=6;overflow=hidden;whiteSpace=wrap;html=1;" parent="AH4Sky3rlhgojyti313X-72" vertex="1">
          <mxGeometry x="30" width="150" height="30" as="geometry">
            <mxRectangle width="150" height="30" as="alternateBounds" />
          </mxGeometry>
        </mxCell>
        <mxCell id="AH4Sky3rlhgojyti313X-69" style="shape=tableRow;horizontal=0;startSize=0;swimlaneHead=0;swimlaneBody=0;fillColor=none;collapsible=0;dropTarget=0;points=[[0,0.5],[1,0.5]];portConstraint=eastwest;top=0;left=0;right=0;bottom=0;" parent="AH4Sky3rlhgojyti313X-29" vertex="1">
          <mxGeometry y="330" width="180" height="30" as="geometry" />
        </mxCell>
        <mxCell id="AH4Sky3rlhgojyti313X-70" style="shape=partialRectangle;connectable=0;fillColor=none;top=0;left=0;bottom=0;right=0;editable=1;overflow=hidden;whiteSpace=wrap;html=1;" parent="AH4Sky3rlhgojyti313X-69" vertex="1">
          <mxGeometry width="30" height="30" as="geometry">
            <mxRectangle width="30" height="30" as="alternateBounds" />
          </mxGeometry>
        </mxCell>
        <mxCell id="AH4Sky3rlhgojyti313X-71" value="phone" style="shape=partialRectangle;connectable=0;fillColor=none;top=0;left=0;bottom=0;right=0;align=left;spacingLeft=6;overflow=hidden;whiteSpace=wrap;html=1;" parent="AH4Sky3rlhgojyti313X-69" vertex="1">
          <mxGeometry x="30" width="150" height="30" as="geometry">
            <mxRectangle width="150" height="30" as="alternateBounds" />
          </mxGeometry>
        </mxCell>
        <mxCell id="AH4Sky3rlhgojyti313X-90" style="shape=tableRow;horizontal=0;startSize=0;swimlaneHead=0;swimlaneBody=0;fillColor=none;collapsible=0;dropTarget=0;points=[[0,0.5],[1,0.5]];portConstraint=eastwest;top=0;left=0;right=0;bottom=0;" parent="AH4Sky3rlhgojyti313X-29" vertex="1">
          <mxGeometry y="360" width="180" height="30" as="geometry" />
        </mxCell>
        <mxCell id="AH4Sky3rlhgojyti313X-91" style="shape=partialRectangle;connectable=0;fillColor=none;top=0;left=0;bottom=0;right=0;editable=1;overflow=hidden;whiteSpace=wrap;html=1;" parent="AH4Sky3rlhgojyti313X-90" vertex="1">
          <mxGeometry width="30" height="30" as="geometry">
            <mxRectangle width="30" height="30" as="alternateBounds" />
          </mxGeometry>
        </mxCell>
        <mxCell id="AH4Sky3rlhgojyti313X-92" value="email" style="shape=partialRectangle;connectable=0;fillColor=none;top=0;left=0;bottom=0;right=0;align=left;spacingLeft=6;overflow=hidden;whiteSpace=wrap;html=1;" parent="AH4Sky3rlhgojyti313X-90" vertex="1">
          <mxGeometry x="30" width="150" height="30" as="geometry">
            <mxRectangle width="150" height="30" as="alternateBounds" />
          </mxGeometry>
        </mxCell>
        <mxCell id="AH4Sky3rlhgojyti313X-87" style="shape=tableRow;horizontal=0;startSize=0;swimlaneHead=0;swimlaneBody=0;fillColor=none;collapsible=0;dropTarget=0;points=[[0,0.5],[1,0.5]];portConstraint=eastwest;top=0;left=0;right=0;bottom=0;" parent="AH4Sky3rlhgojyti313X-29" vertex="1">
          <mxGeometry y="390" width="180" height="30" as="geometry" />
        </mxCell>
        <mxCell id="AH4Sky3rlhgojyti313X-88" style="shape=partialRectangle;connectable=0;fillColor=none;top=0;left=0;bottom=0;right=0;editable=1;overflow=hidden;whiteSpace=wrap;html=1;" parent="AH4Sky3rlhgojyti313X-87" vertex="1">
          <mxGeometry width="30" height="30" as="geometry">
            <mxRectangle width="30" height="30" as="alternateBounds" />
          </mxGeometry>
        </mxCell>
        <mxCell id="AH4Sky3rlhgojyti313X-89" value="password" style="shape=partialRectangle;connectable=0;fillColor=none;top=0;left=0;bottom=0;right=0;align=left;spacingLeft=6;overflow=hidden;whiteSpace=wrap;html=1;" parent="AH4Sky3rlhgojyti313X-87" vertex="1">
          <mxGeometry x="30" width="150" height="30" as="geometry">
            <mxRectangle width="150" height="30" as="alternateBounds" />
          </mxGeometry>
        </mxCell>
        <mxCell id="lKEKLBZj1fZ_7uluffBy-17" style="shape=tableRow;horizontal=0;startSize=0;swimlaneHead=0;swimlaneBody=0;fillColor=none;collapsible=0;dropTarget=0;points=[[0,0.5],[1,0.5]];portConstraint=eastwest;top=0;left=0;right=0;bottom=0;" parent="AH4Sky3rlhgojyti313X-29" vertex="1">
          <mxGeometry y="420" width="180" height="30" as="geometry" />
        </mxCell>
        <mxCell id="lKEKLBZj1fZ_7uluffBy-18" style="shape=partialRectangle;connectable=0;fillColor=none;top=0;left=0;bottom=0;right=0;editable=1;overflow=hidden;whiteSpace=wrap;html=1;" parent="lKEKLBZj1fZ_7uluffBy-17" vertex="1">
          <mxGeometry width="30" height="30" as="geometry">
            <mxRectangle width="30" height="30" as="alternateBounds" />
          </mxGeometry>
        </mxCell>
        <mxCell id="lKEKLBZj1fZ_7uluffBy-19" value="date_of_employment" style="shape=partialRectangle;connectable=0;fillColor=none;top=0;left=0;bottom=0;right=0;align=left;spacingLeft=6;overflow=hidden;whiteSpace=wrap;html=1;" parent="lKEKLBZj1fZ_7uluffBy-17" vertex="1">
          <mxGeometry x="30" width="150" height="30" as="geometry">
            <mxRectangle width="150" height="30" as="alternateBounds" />
          </mxGeometry>
        </mxCell>
        <mxCell id="AH4Sky3rlhgojyti313X-48" value="" style="verticalLabelPosition=bottom;verticalAlign=top;html=1;shape=mxgraph.basic.frame;dx=10;whiteSpace=wrap;" parent="1" vertex="1">
          <mxGeometry x="840" y="395" width="520" height="320" as="geometry" />
        </mxCell>
        <mxCell id="AH4Sky3rlhgojyti313X-49" value="position" style="shape=table;startSize=30;container=1;collapsible=1;childLayout=tableLayout;fixedRows=1;rowLines=0;fontStyle=1;align=center;resizeLast=1;html=1;" parent="1" vertex="1">
          <mxGeometry x="30" y="495" width="180" height="120" as="geometry" />
        </mxCell>
        <mxCell id="AH4Sky3rlhgojyti313X-50" value="" style="shape=tableRow;horizontal=0;startSize=0;swimlaneHead=0;swimlaneBody=0;fillColor=none;collapsible=0;dropTarget=0;points=[[0,0.5],[1,0.5]];portConstraint=eastwest;top=0;left=0;right=0;bottom=1;" parent="AH4Sky3rlhgojyti313X-49" vertex="1">
          <mxGeometry y="30" width="180" height="30" as="geometry" />
        </mxCell>
        <mxCell id="AH4Sky3rlhgojyti313X-51" value="PK" style="shape=partialRectangle;connectable=0;fillColor=none;top=0;left=0;bottom=0;right=0;fontStyle=1;overflow=hidden;whiteSpace=wrap;html=1;" parent="AH4Sky3rlhgojyti313X-50" vertex="1">
          <mxGeometry width="30" height="30" as="geometry">
            <mxRectangle width="30" height="30" as="alternateBounds" />
          </mxGeometry>
        </mxCell>
        <mxCell id="AH4Sky3rlhgojyti313X-52" value="id" style="shape=partialRectangle;connectable=0;fillColor=none;top=0;left=0;bottom=0;right=0;align=left;spacingLeft=6;fontStyle=5;overflow=hidden;whiteSpace=wrap;html=1;" parent="AH4Sky3rlhgojyti313X-50" vertex="1">
          <mxGeometry x="30" width="150" height="30" as="geometry">
            <mxRectangle width="150" height="30" as="alternateBounds" />
          </mxGeometry>
        </mxCell>
        <mxCell id="AH4Sky3rlhgojyti313X-53" value="" style="shape=tableRow;horizontal=0;startSize=0;swimlaneHead=0;swimlaneBody=0;fillColor=none;collapsible=0;dropTarget=0;points=[[0,0.5],[1,0.5]];portConstraint=eastwest;top=0;left=0;right=0;bottom=0;" parent="AH4Sky3rlhgojyti313X-49" vertex="1">
          <mxGeometry y="60" width="180" height="30" as="geometry" />
        </mxCell>
        <mxCell id="AH4Sky3rlhgojyti313X-54" value="" style="shape=partialRectangle;connectable=0;fillColor=none;top=0;left=0;bottom=0;right=0;editable=1;overflow=hidden;whiteSpace=wrap;html=1;" parent="AH4Sky3rlhgojyti313X-53" vertex="1">
          <mxGeometry width="30" height="30" as="geometry">
            <mxRectangle width="30" height="30" as="alternateBounds" />
          </mxGeometry>
        </mxCell>
        <mxCell id="AH4Sky3rlhgojyti313X-55" value="title" style="shape=partialRectangle;connectable=0;fillColor=none;top=0;left=0;bottom=0;right=0;align=left;spacingLeft=6;overflow=hidden;whiteSpace=wrap;html=1;" parent="AH4Sky3rlhgojyti313X-53" vertex="1">
          <mxGeometry x="30" width="150" height="30" as="geometry">
            <mxRectangle width="150" height="30" as="alternateBounds" />
          </mxGeometry>
        </mxCell>
        <mxCell id="AH4Sky3rlhgojyti313X-56" value="" style="shape=tableRow;horizontal=0;startSize=0;swimlaneHead=0;swimlaneBody=0;fillColor=none;collapsible=0;dropTarget=0;points=[[0,0.5],[1,0.5]];portConstraint=eastwest;top=0;left=0;right=0;bottom=0;" parent="AH4Sky3rlhgojyti313X-49" vertex="1">
          <mxGeometry y="90" width="180" height="30" as="geometry" />
        </mxCell>
        <mxCell id="AH4Sky3rlhgojyti313X-57" value="" style="shape=partialRectangle;connectable=0;fillColor=none;top=0;left=0;bottom=0;right=0;editable=1;overflow=hidden;whiteSpace=wrap;html=1;" parent="AH4Sky3rlhgojyti313X-56" vertex="1">
          <mxGeometry width="30" height="30" as="geometry">
            <mxRectangle width="30" height="30" as="alternateBounds" />
          </mxGeometry>
        </mxCell>
        <mxCell id="AH4Sky3rlhgojyti313X-58" value="salary" style="shape=partialRectangle;connectable=0;fillColor=none;top=0;left=0;bottom=0;right=0;align=left;spacingLeft=6;overflow=hidden;whiteSpace=wrap;html=1;" parent="AH4Sky3rlhgojyti313X-56" vertex="1">
          <mxGeometry x="30" width="150" height="30" as="geometry">
            <mxRectangle width="150" height="30" as="alternateBounds" />
          </mxGeometry>
        </mxCell>
        <mxCell id="AH4Sky3rlhgojyti313X-93" value="Bad roads company" style="text;html=1;align=center;verticalAlign=middle;whiteSpace=wrap;rounded=0;fontSize=21;" parent="1" vertex="1">
          <mxGeometry x="430" y="40" width="220" height="30" as="geometry" />
        </mxCell>
        <mxCell id="AH4Sky3rlhgojyti313X-94" value="Department list" style="text;html=1;align=center;verticalAlign=middle;whiteSpace=wrap;rounded=0;" parent="1" vertex="1">
          <mxGeometry x="304" y="100" width="110" height="30" as="geometry" />
        </mxCell>
        <mxCell id="AH4Sky3rlhgojyti313X-108" value="" style="childLayout=tableLayout;recursiveResize=0;shadow=0;fillColor=none;fontSize=9;" parent="1" vertex="1">
          <mxGeometry x="304" y="130" width="466" height="180" as="geometry" />
        </mxCell>
        <mxCell id="AH4Sky3rlhgojyti313X-109" value="" style="shape=tableRow;horizontal=0;startSize=0;swimlaneHead=0;swimlaneBody=0;top=0;left=0;bottom=0;right=0;dropTarget=0;collapsible=0;recursiveResize=0;expand=0;fontStyle=0;fillColor=none;strokeColor=inherit;fontSize=9;" parent="AH4Sky3rlhgojyti313X-108" vertex="1">
          <mxGeometry width="466" height="30" as="geometry" />
        </mxCell>
        <mxCell id="AH4Sky3rlhgojyti313X-110" value="#" style="connectable=0;recursiveResize=0;strokeColor=inherit;fillColor=none;align=center;whiteSpace=wrap;html=1;fontSize=9;" parent="AH4Sky3rlhgojyti313X-109" vertex="1">
          <mxGeometry width="46" height="30" as="geometry">
            <mxRectangle width="46" height="30" as="alternateBounds" />
          </mxGeometry>
        </mxCell>
        <mxCell id="AH4Sky3rlhgojyti313X-111" value="City" style="connectable=0;recursiveResize=0;strokeColor=inherit;fillColor=none;align=center;whiteSpace=wrap;html=1;fontSize=9;" parent="AH4Sky3rlhgojyti313X-109" vertex="1">
          <mxGeometry x="46" width="40" height="30" as="geometry">
            <mxRectangle width="40" height="30" as="alternateBounds" />
          </mxGeometry>
        </mxCell>
        <mxCell id="AH4Sky3rlhgojyti313X-112" value="Address" style="connectable=0;recursiveResize=0;strokeColor=inherit;fillColor=none;align=center;whiteSpace=wrap;html=1;fontSize=9;" parent="AH4Sky3rlhgojyti313X-109" vertex="1">
          <mxGeometry x="86" width="60" height="30" as="geometry">
            <mxRectangle width="60" height="30" as="alternateBounds" />
          </mxGeometry>
        </mxCell>
        <mxCell id="AH4Sky3rlhgojyti313X-121" value="Zip" style="connectable=0;recursiveResize=0;strokeColor=inherit;fillColor=none;align=center;whiteSpace=wrap;html=1;fontSize=9;" parent="AH4Sky3rlhgojyti313X-109" vertex="1">
          <mxGeometry x="146" width="40" height="30" as="geometry">
            <mxRectangle width="40" height="30" as="alternateBounds" />
          </mxGeometry>
        </mxCell>
        <mxCell id="AH4Sky3rlhgojyti313X-124" value="Phone" style="connectable=0;recursiveResize=0;strokeColor=inherit;fillColor=none;align=center;whiteSpace=wrap;html=1;fontSize=9;" parent="AH4Sky3rlhgojyti313X-109" vertex="1">
          <mxGeometry x="186" width="50" height="30" as="geometry">
            <mxRectangle width="50" height="30" as="alternateBounds" />
          </mxGeometry>
        </mxCell>
        <mxCell id="AH4Sky3rlhgojyti313X-127" value="Email" style="connectable=0;recursiveResize=0;strokeColor=inherit;fillColor=none;align=center;whiteSpace=wrap;html=1;fontSize=9;" parent="AH4Sky3rlhgojyti313X-109" vertex="1">
          <mxGeometry x="236" width="80" height="30" as="geometry">
            <mxRectangle width="80" height="30" as="alternateBounds" />
          </mxGeometry>
        </mxCell>
        <mxCell id="wZ5vPUtes3kSZlP5XI-J-1" value="Size" style="connectable=0;recursiveResize=0;strokeColor=inherit;fillColor=none;align=center;whiteSpace=wrap;html=1;fontSize=9;" parent="AH4Sky3rlhgojyti313X-109" vertex="1">
          <mxGeometry x="316" width="70" height="30" as="geometry">
            <mxRectangle width="70" height="30" as="alternateBounds" />
          </mxGeometry>
        </mxCell>
        <mxCell id="AH4Sky3rlhgojyti313X-130" style="connectable=0;recursiveResize=0;strokeColor=inherit;fillColor=none;align=center;whiteSpace=wrap;html=1;fontSize=9;" parent="AH4Sky3rlhgojyti313X-109" vertex="1">
          <mxGeometry x="386" width="80" height="30" as="geometry">
            <mxRectangle width="80" height="30" as="alternateBounds" />
          </mxGeometry>
        </mxCell>
        <mxCell id="AH4Sky3rlhgojyti313X-113" style="shape=tableRow;horizontal=0;startSize=0;swimlaneHead=0;swimlaneBody=0;top=0;left=0;bottom=0;right=0;dropTarget=0;collapsible=0;recursiveResize=0;expand=0;fontStyle=0;fillColor=none;strokeColor=inherit;fontSize=9;" parent="AH4Sky3rlhgojyti313X-108" vertex="1">
          <mxGeometry y="30" width="466" height="40" as="geometry" />
        </mxCell>
        <mxCell id="AH4Sky3rlhgojyti313X-114" value="1" style="connectable=0;recursiveResize=0;strokeColor=inherit;fillColor=none;align=center;whiteSpace=wrap;html=1;fontSize=9;" parent="AH4Sky3rlhgojyti313X-113" vertex="1">
          <mxGeometry width="46" height="40" as="geometry">
            <mxRectangle width="46" height="40" as="alternateBounds" />
          </mxGeometry>
        </mxCell>
        <mxCell id="AH4Sky3rlhgojyti313X-115" value="Rostov" style="connectable=0;recursiveResize=0;strokeColor=inherit;fillColor=none;align=center;whiteSpace=wrap;html=1;fontSize=9;" parent="AH4Sky3rlhgojyti313X-113" vertex="1">
          <mxGeometry x="46" width="40" height="40" as="geometry">
            <mxRectangle width="40" height="40" as="alternateBounds" />
          </mxGeometry>
        </mxCell>
        <mxCell id="AH4Sky3rlhgojyti313X-116" value="Lenina 40" style="connectable=0;recursiveResize=0;strokeColor=inherit;fillColor=none;align=center;whiteSpace=wrap;html=1;fontSize=9;" parent="AH4Sky3rlhgojyti313X-113" vertex="1">
          <mxGeometry x="86" width="60" height="40" as="geometry">
            <mxRectangle width="60" height="40" as="alternateBounds" />
          </mxGeometry>
        </mxCell>
        <mxCell id="AH4Sky3rlhgojyti313X-122" value="123" style="connectable=0;recursiveResize=0;strokeColor=inherit;fillColor=none;align=center;whiteSpace=wrap;html=1;fontSize=9;" parent="AH4Sky3rlhgojyti313X-113" vertex="1">
          <mxGeometry x="146" width="40" height="40" as="geometry">
            <mxRectangle width="40" height="40" as="alternateBounds" />
          </mxGeometry>
        </mxCell>
        <mxCell id="AH4Sky3rlhgojyti313X-125" value="25-30-40" style="connectable=0;recursiveResize=0;strokeColor=inherit;fillColor=none;align=center;whiteSpace=wrap;html=1;fontSize=9;" parent="AH4Sky3rlhgojyti313X-113" vertex="1">
          <mxGeometry x="186" width="50" height="40" as="geometry">
            <mxRectangle width="50" height="40" as="alternateBounds" />
          </mxGeometry>
        </mxCell>
        <mxCell id="AH4Sky3rlhgojyti313X-128" value="rnd@br.com" style="connectable=0;recursiveResize=0;strokeColor=inherit;fillColor=none;align=center;whiteSpace=wrap;html=1;fontSize=9;" parent="AH4Sky3rlhgojyti313X-113" vertex="1">
          <mxGeometry x="236" width="80" height="40" as="geometry">
            <mxRectangle width="80" height="40" as="alternateBounds" />
          </mxGeometry>
        </mxCell>
        <mxCell id="wZ5vPUtes3kSZlP5XI-J-2" value="10" style="connectable=0;recursiveResize=0;strokeColor=inherit;fillColor=none;align=center;whiteSpace=wrap;html=1;fontSize=9;" parent="AH4Sky3rlhgojyti313X-113" vertex="1">
          <mxGeometry x="316" width="70" height="40" as="geometry">
            <mxRectangle width="70" height="40" as="alternateBounds" />
          </mxGeometry>
        </mxCell>
        <mxCell id="AH4Sky3rlhgojyti313X-131" value="..." style="connectable=0;recursiveResize=0;strokeColor=inherit;fillColor=none;align=center;whiteSpace=wrap;html=1;fontSize=19;" parent="AH4Sky3rlhgojyti313X-113" vertex="1">
          <mxGeometry x="386" width="80" height="40" as="geometry">
            <mxRectangle width="80" height="40" as="alternateBounds" />
          </mxGeometry>
        </mxCell>
        <mxCell id="AH4Sky3rlhgojyti313X-141" style="shape=tableRow;horizontal=0;startSize=0;swimlaneHead=0;swimlaneBody=0;top=0;left=0;bottom=0;right=0;dropTarget=0;collapsible=0;recursiveResize=0;expand=0;fontStyle=0;fillColor=none;strokeColor=inherit;fontSize=9;" parent="AH4Sky3rlhgojyti313X-108" vertex="1">
          <mxGeometry y="70" width="466" height="40" as="geometry" />
        </mxCell>
        <mxCell id="AH4Sky3rlhgojyti313X-142" value="2" style="connectable=0;recursiveResize=0;strokeColor=inherit;fillColor=none;align=center;whiteSpace=wrap;html=1;fontSize=9;" parent="AH4Sky3rlhgojyti313X-141" vertex="1">
          <mxGeometry width="46" height="40" as="geometry">
            <mxRectangle width="46" height="40" as="alternateBounds" />
          </mxGeometry>
        </mxCell>
        <mxCell id="AH4Sky3rlhgojyti313X-143" value="Omsk" style="connectable=0;recursiveResize=0;strokeColor=inherit;fillColor=none;align=center;whiteSpace=wrap;html=1;fontSize=9;" parent="AH4Sky3rlhgojyti313X-141" vertex="1">
          <mxGeometry x="46" width="40" height="40" as="geometry">
            <mxRectangle width="40" height="40" as="alternateBounds" />
          </mxGeometry>
        </mxCell>
        <mxCell id="AH4Sky3rlhgojyti313X-144" value="Grinvicha 20" style="connectable=0;recursiveResize=0;strokeColor=inherit;fillColor=none;align=center;whiteSpace=wrap;html=1;fontSize=9;" parent="AH4Sky3rlhgojyti313X-141" vertex="1">
          <mxGeometry x="86" width="60" height="40" as="geometry">
            <mxRectangle width="60" height="40" as="alternateBounds" />
          </mxGeometry>
        </mxCell>
        <mxCell id="AH4Sky3rlhgojyti313X-145" value="321" style="connectable=0;recursiveResize=0;strokeColor=inherit;fillColor=none;align=center;whiteSpace=wrap;html=1;fontSize=9;" parent="AH4Sky3rlhgojyti313X-141" vertex="1">
          <mxGeometry x="146" width="40" height="40" as="geometry">
            <mxRectangle width="40" height="40" as="alternateBounds" />
          </mxGeometry>
        </mxCell>
        <mxCell id="AH4Sky3rlhgojyti313X-146" value="31-20-10" style="connectable=0;recursiveResize=0;strokeColor=inherit;fillColor=none;align=center;whiteSpace=wrap;html=1;fontSize=9;" parent="AH4Sky3rlhgojyti313X-141" vertex="1">
          <mxGeometry x="186" width="50" height="40" as="geometry">
            <mxRectangle width="50" height="40" as="alternateBounds" />
          </mxGeometry>
        </mxCell>
        <mxCell id="AH4Sky3rlhgojyti313X-147" value="omsk@br.com" style="connectable=0;recursiveResize=0;strokeColor=inherit;fillColor=none;align=center;whiteSpace=wrap;html=1;fontSize=9;" parent="AH4Sky3rlhgojyti313X-141" vertex="1">
          <mxGeometry x="236" width="80" height="40" as="geometry">
            <mxRectangle width="80" height="40" as="alternateBounds" />
          </mxGeometry>
        </mxCell>
        <mxCell id="wZ5vPUtes3kSZlP5XI-J-3" value="15" style="connectable=0;recursiveResize=0;strokeColor=inherit;fillColor=none;align=center;whiteSpace=wrap;html=1;fontSize=9;" parent="AH4Sky3rlhgojyti313X-141" vertex="1">
          <mxGeometry x="316" width="70" height="40" as="geometry">
            <mxRectangle width="70" height="40" as="alternateBounds" />
          </mxGeometry>
        </mxCell>
        <mxCell id="AH4Sky3rlhgojyti313X-148" value="..." style="connectable=0;recursiveResize=0;strokeColor=inherit;fillColor=none;align=center;whiteSpace=wrap;html=1;fontSize=19;" parent="AH4Sky3rlhgojyti313X-141" vertex="1">
          <mxGeometry x="386" width="80" height="40" as="geometry">
            <mxRectangle width="80" height="40" as="alternateBounds" />
          </mxGeometry>
        </mxCell>
        <mxCell id="AH4Sky3rlhgojyti313X-133" style="shape=tableRow;horizontal=0;startSize=0;swimlaneHead=0;swimlaneBody=0;top=0;left=0;bottom=0;right=0;dropTarget=0;collapsible=0;recursiveResize=0;expand=0;fontStyle=0;fillColor=none;strokeColor=inherit;fontSize=9;" parent="AH4Sky3rlhgojyti313X-108" vertex="1">
          <mxGeometry y="110" width="466" height="40" as="geometry" />
        </mxCell>
        <mxCell id="AH4Sky3rlhgojyti313X-134" value="3" style="connectable=0;recursiveResize=0;strokeColor=inherit;fillColor=none;align=center;whiteSpace=wrap;html=1;fontSize=9;" parent="AH4Sky3rlhgojyti313X-133" vertex="1">
          <mxGeometry width="46" height="40" as="geometry">
            <mxRectangle width="46" height="40" as="alternateBounds" />
          </mxGeometry>
        </mxCell>
        <mxCell id="AH4Sky3rlhgojyti313X-135" value="Chita" style="connectable=0;recursiveResize=0;strokeColor=inherit;fillColor=none;align=center;whiteSpace=wrap;html=1;fontSize=9;" parent="AH4Sky3rlhgojyti313X-133" vertex="1">
          <mxGeometry x="46" width="40" height="40" as="geometry">
            <mxRectangle width="40" height="40" as="alternateBounds" />
          </mxGeometry>
        </mxCell>
        <mxCell id="AH4Sky3rlhgojyti313X-136" value="Gagarina 30" style="connectable=0;recursiveResize=0;strokeColor=inherit;fillColor=none;align=center;whiteSpace=wrap;html=1;fontSize=9;" parent="AH4Sky3rlhgojyti313X-133" vertex="1">
          <mxGeometry x="86" width="60" height="40" as="geometry">
            <mxRectangle width="60" height="40" as="alternateBounds" />
          </mxGeometry>
        </mxCell>
        <mxCell id="AH4Sky3rlhgojyti313X-137" value="425" style="connectable=0;recursiveResize=0;strokeColor=inherit;fillColor=none;align=center;whiteSpace=wrap;html=1;fontSize=9;" parent="AH4Sky3rlhgojyti313X-133" vertex="1">
          <mxGeometry x="146" width="40" height="40" as="geometry">
            <mxRectangle width="40" height="40" as="alternateBounds" />
          </mxGeometry>
        </mxCell>
        <mxCell id="AH4Sky3rlhgojyti313X-138" value="33-49-80" style="connectable=0;recursiveResize=0;strokeColor=inherit;fillColor=none;align=center;whiteSpace=wrap;html=1;fontSize=9;" parent="AH4Sky3rlhgojyti313X-133" vertex="1">
          <mxGeometry x="186" width="50" height="40" as="geometry">
            <mxRectangle width="50" height="40" as="alternateBounds" />
          </mxGeometry>
        </mxCell>
        <mxCell id="AH4Sky3rlhgojyti313X-139" value="chita@br.com" style="connectable=0;recursiveResize=0;strokeColor=inherit;fillColor=none;align=center;whiteSpace=wrap;html=1;fontSize=9;" parent="AH4Sky3rlhgojyti313X-133" vertex="1">
          <mxGeometry x="236" width="80" height="40" as="geometry">
            <mxRectangle width="80" height="40" as="alternateBounds" />
          </mxGeometry>
        </mxCell>
        <mxCell id="wZ5vPUtes3kSZlP5XI-J-4" value="2" style="connectable=0;recursiveResize=0;strokeColor=inherit;fillColor=none;align=center;whiteSpace=wrap;html=1;fontSize=9;" parent="AH4Sky3rlhgojyti313X-133" vertex="1">
          <mxGeometry x="316" width="70" height="40" as="geometry">
            <mxRectangle width="70" height="40" as="alternateBounds" />
          </mxGeometry>
        </mxCell>
        <mxCell id="AH4Sky3rlhgojyti313X-140" value="..." style="connectable=0;recursiveResize=0;strokeColor=inherit;fillColor=none;align=center;whiteSpace=wrap;html=1;fontSize=19;" parent="AH4Sky3rlhgojyti313X-133" vertex="1">
          <mxGeometry x="386" width="80" height="40" as="geometry">
            <mxRectangle width="80" height="40" as="alternateBounds" />
          </mxGeometry>
        </mxCell>
        <mxCell id="AH4Sky3rlhgojyti313X-117" style="shape=tableRow;horizontal=0;startSize=0;swimlaneHead=0;swimlaneBody=0;top=0;left=0;bottom=0;right=0;dropTarget=0;collapsible=0;recursiveResize=0;expand=0;fontStyle=0;fillColor=none;strokeColor=inherit;fontSize=9;" parent="AH4Sky3rlhgojyti313X-108" vertex="1">
          <mxGeometry y="150" width="466" height="30" as="geometry" />
        </mxCell>
        <mxCell id="AH4Sky3rlhgojyti313X-118" value="-" style="connectable=0;recursiveResize=0;strokeColor=inherit;fillColor=none;align=center;whiteSpace=wrap;html=1;fontSize=9;" parent="AH4Sky3rlhgojyti313X-117" vertex="1">
          <mxGeometry width="46" height="30" as="geometry">
            <mxRectangle width="46" height="30" as="alternateBounds" />
          </mxGeometry>
        </mxCell>
        <mxCell id="AH4Sky3rlhgojyti313X-119" value="-" style="connectable=0;recursiveResize=0;strokeColor=inherit;fillColor=none;align=center;whiteSpace=wrap;html=1;fontSize=9;" parent="AH4Sky3rlhgojyti313X-117" vertex="1">
          <mxGeometry x="46" width="40" height="30" as="geometry">
            <mxRectangle width="40" height="30" as="alternateBounds" />
          </mxGeometry>
        </mxCell>
        <mxCell id="AH4Sky3rlhgojyti313X-120" value="-" style="connectable=0;recursiveResize=0;strokeColor=inherit;fillColor=none;align=center;whiteSpace=wrap;html=1;fontSize=9;" parent="AH4Sky3rlhgojyti313X-117" vertex="1">
          <mxGeometry x="86" width="60" height="30" as="geometry">
            <mxRectangle width="60" height="30" as="alternateBounds" />
          </mxGeometry>
        </mxCell>
        <mxCell id="AH4Sky3rlhgojyti313X-123" value="-" style="connectable=0;recursiveResize=0;strokeColor=inherit;fillColor=none;align=center;whiteSpace=wrap;html=1;fontSize=9;" parent="AH4Sky3rlhgojyti313X-117" vertex="1">
          <mxGeometry x="146" width="40" height="30" as="geometry">
            <mxRectangle width="40" height="30" as="alternateBounds" />
          </mxGeometry>
        </mxCell>
        <mxCell id="AH4Sky3rlhgojyti313X-126" value="-" style="connectable=0;recursiveResize=0;strokeColor=inherit;fillColor=none;align=center;whiteSpace=wrap;html=1;fontSize=9;" parent="AH4Sky3rlhgojyti313X-117" vertex="1">
          <mxGeometry x="186" width="50" height="30" as="geometry">
            <mxRectangle width="50" height="30" as="alternateBounds" />
          </mxGeometry>
        </mxCell>
        <mxCell id="AH4Sky3rlhgojyti313X-129" value="-" style="connectable=0;recursiveResize=0;strokeColor=inherit;fillColor=none;align=center;whiteSpace=wrap;html=1;fontSize=9;" parent="AH4Sky3rlhgojyti313X-117" vertex="1">
          <mxGeometry x="236" width="80" height="30" as="geometry">
            <mxRectangle width="80" height="30" as="alternateBounds" />
          </mxGeometry>
        </mxCell>
        <mxCell id="wZ5vPUtes3kSZlP5XI-J-5" style="connectable=0;recursiveResize=0;strokeColor=inherit;fillColor=none;align=center;whiteSpace=wrap;html=1;fontSize=9;" parent="AH4Sky3rlhgojyti313X-117" vertex="1">
          <mxGeometry x="316" width="70" height="30" as="geometry">
            <mxRectangle width="70" height="30" as="alternateBounds" />
          </mxGeometry>
        </mxCell>
        <mxCell id="AH4Sky3rlhgojyti313X-132" value="-" style="connectable=0;recursiveResize=0;strokeColor=inherit;fillColor=none;align=center;whiteSpace=wrap;html=1;fontSize=9;" parent="AH4Sky3rlhgojyti313X-117" vertex="1">
          <mxGeometry x="386" width="80" height="30" as="geometry">
            <mxRectangle width="80" height="30" as="alternateBounds" />
          </mxGeometry>
        </mxCell>
        <mxCell id="AH4Sky3rlhgojyti313X-152" value="&amp;lt; 1 &amp;gt; ... &amp;lt; n &amp;gt;" style="text;html=1;align=center;verticalAlign=middle;whiteSpace=wrap;rounded=0;" parent="1" vertex="1">
          <mxGeometry x="664" y="330" width="110" height="30" as="geometry" />
        </mxCell>
        <mxCell id="AH4Sky3rlhgojyti313X-153" value="Department" style="text;html=1;align=center;verticalAlign=middle;resizable=0;points=[];autosize=1;strokeColor=none;fillColor=none;fontSize=19;" parent="1" vertex="1">
          <mxGeometry x="480" y="408" width="120" height="40" as="geometry" />
        </mxCell>
        <mxCell id="AH4Sky3rlhgojyti313X-154" value="" style="childLayout=tableLayout;recursiveResize=0;shadow=0;fillColor=none;fontSize=9;" parent="1" vertex="1">
          <mxGeometry x="303" y="555" width="477" height="140" as="geometry" />
        </mxCell>
        <mxCell id="AH4Sky3rlhgojyti313X-155" value="" style="shape=tableRow;horizontal=0;startSize=0;swimlaneHead=0;swimlaneBody=0;top=0;left=0;bottom=0;right=0;dropTarget=0;collapsible=0;recursiveResize=0;expand=0;fontStyle=0;fillColor=none;strokeColor=inherit;fontSize=9;" parent="AH4Sky3rlhgojyti313X-154" vertex="1">
          <mxGeometry width="477" height="30" as="geometry" />
        </mxCell>
        <mxCell id="AH4Sky3rlhgojyti313X-156" value="#" style="connectable=0;recursiveResize=0;strokeColor=inherit;fillColor=none;align=center;whiteSpace=wrap;html=1;fontSize=9;" parent="AH4Sky3rlhgojyti313X-155" vertex="1">
          <mxGeometry width="36" height="30" as="geometry">
            <mxRectangle width="36" height="30" as="alternateBounds" />
          </mxGeometry>
        </mxCell>
        <mxCell id="AH4Sky3rlhgojyti313X-157" value="Name" style="connectable=0;recursiveResize=0;strokeColor=inherit;fillColor=none;align=center;whiteSpace=wrap;html=1;fontSize=9;" parent="AH4Sky3rlhgojyti313X-155" vertex="1">
          <mxGeometry x="36" width="50" height="30" as="geometry">
            <mxRectangle width="50" height="30" as="alternateBounds" />
          </mxGeometry>
        </mxCell>
        <mxCell id="AH4Sky3rlhgojyti313X-158" value="Sex" style="connectable=0;recursiveResize=0;strokeColor=inherit;fillColor=none;align=center;whiteSpace=wrap;html=1;fontSize=9;" parent="AH4Sky3rlhgojyti313X-155" vertex="1">
          <mxGeometry x="86" width="41" height="30" as="geometry">
            <mxRectangle width="41" height="30" as="alternateBounds" />
          </mxGeometry>
        </mxCell>
        <mxCell id="AH4Sky3rlhgojyti313X-159" value="Birth" style="connectable=0;recursiveResize=0;strokeColor=inherit;fillColor=none;align=center;whiteSpace=wrap;html=1;fontSize=9;" parent="AH4Sky3rlhgojyti313X-155" vertex="1">
          <mxGeometry x="127" width="40" height="30" as="geometry">
            <mxRectangle width="40" height="30" as="alternateBounds" />
          </mxGeometry>
        </mxCell>
        <mxCell id="AH4Sky3rlhgojyti313X-160" value="position" style="connectable=0;recursiveResize=0;strokeColor=inherit;fillColor=none;align=center;whiteSpace=wrap;html=1;fontSize=9;" parent="AH4Sky3rlhgojyti313X-155" vertex="1">
          <mxGeometry x="167" width="50" height="30" as="geometry">
            <mxRectangle width="50" height="30" as="alternateBounds" />
          </mxGeometry>
        </mxCell>
        <mxCell id="AH4Sky3rlhgojyti313X-161" value="Address" style="connectable=0;recursiveResize=0;strokeColor=inherit;fillColor=none;align=center;whiteSpace=wrap;html=1;fontSize=9;" parent="AH4Sky3rlhgojyti313X-155" vertex="1">
          <mxGeometry x="217" width="90" height="30" as="geometry">
            <mxRectangle width="90" height="30" as="alternateBounds" />
          </mxGeometry>
        </mxCell>
        <mxCell id="AH4Sky3rlhgojyti313X-217" value="Phone" style="connectable=0;recursiveResize=0;strokeColor=inherit;fillColor=none;align=center;whiteSpace=wrap;html=1;fontSize=9;" parent="AH4Sky3rlhgojyti313X-155" vertex="1">
          <mxGeometry x="307" width="60" height="30" as="geometry">
            <mxRectangle width="60" height="30" as="alternateBounds" />
          </mxGeometry>
        </mxCell>
        <mxCell id="AH4Sky3rlhgojyti313X-221" value="Email" style="connectable=0;recursiveResize=0;strokeColor=inherit;fillColor=none;align=center;whiteSpace=wrap;html=1;fontSize=9;" parent="AH4Sky3rlhgojyti313X-155" vertex="1">
          <mxGeometry x="367" width="70" height="30" as="geometry">
            <mxRectangle width="70" height="30" as="alternateBounds" />
          </mxGeometry>
        </mxCell>
        <mxCell id="AH4Sky3rlhgojyti313X-162" style="connectable=0;recursiveResize=0;strokeColor=inherit;fillColor=none;align=center;whiteSpace=wrap;html=1;fontSize=9;" parent="AH4Sky3rlhgojyti313X-155" vertex="1">
          <mxGeometry x="437" width="40" height="30" as="geometry">
            <mxRectangle width="40" height="30" as="alternateBounds" />
          </mxGeometry>
        </mxCell>
        <mxCell id="AH4Sky3rlhgojyti313X-163" style="shape=tableRow;horizontal=0;startSize=0;swimlaneHead=0;swimlaneBody=0;top=0;left=0;bottom=0;right=0;dropTarget=0;collapsible=0;recursiveResize=0;expand=0;fontStyle=0;fillColor=none;strokeColor=inherit;fontSize=9;" parent="AH4Sky3rlhgojyti313X-154" vertex="1">
          <mxGeometry y="30" width="477" height="40" as="geometry" />
        </mxCell>
        <mxCell id="AH4Sky3rlhgojyti313X-164" value="1" style="connectable=0;recursiveResize=0;strokeColor=inherit;fillColor=none;align=center;whiteSpace=wrap;html=1;fontSize=9;" parent="AH4Sky3rlhgojyti313X-163" vertex="1">
          <mxGeometry width="36" height="40" as="geometry">
            <mxRectangle width="36" height="40" as="alternateBounds" />
          </mxGeometry>
        </mxCell>
        <mxCell id="AH4Sky3rlhgojyti313X-165" value="&amp;nbsp;Chi Hu" style="connectable=0;recursiveResize=0;strokeColor=inherit;fillColor=none;align=center;whiteSpace=wrap;html=1;fontSize=9;" parent="AH4Sky3rlhgojyti313X-163" vertex="1">
          <mxGeometry x="36" width="50" height="40" as="geometry">
            <mxRectangle width="50" height="40" as="alternateBounds" />
          </mxGeometry>
        </mxCell>
        <mxCell id="AH4Sky3rlhgojyti313X-166" value="m" style="connectable=0;recursiveResize=0;strokeColor=inherit;fillColor=none;align=center;whiteSpace=wrap;html=1;fontSize=9;" parent="AH4Sky3rlhgojyti313X-163" vertex="1">
          <mxGeometry x="86" width="41" height="40" as="geometry">
            <mxRectangle width="41" height="40" as="alternateBounds" />
          </mxGeometry>
        </mxCell>
        <mxCell id="AH4Sky3rlhgojyti313X-167" value="1921" style="connectable=0;recursiveResize=0;strokeColor=inherit;fillColor=none;align=center;whiteSpace=wrap;html=1;fontSize=9;" parent="AH4Sky3rlhgojyti313X-163" vertex="1">
          <mxGeometry x="127" width="40" height="40" as="geometry">
            <mxRectangle width="40" height="40" as="alternateBounds" />
          </mxGeometry>
        </mxCell>
        <mxCell id="AH4Sky3rlhgojyti313X-168" value="owner" style="connectable=0;recursiveResize=0;strokeColor=inherit;fillColor=none;align=center;whiteSpace=wrap;html=1;fontSize=9;" parent="AH4Sky3rlhgojyti313X-163" vertex="1">
          <mxGeometry x="167" width="50" height="40" as="geometry">
            <mxRectangle width="50" height="40" as="alternateBounds" />
          </mxGeometry>
        </mxCell>
        <mxCell id="AH4Sky3rlhgojyti313X-169" value="Suvorovo 10 - 15" style="connectable=0;recursiveResize=0;strokeColor=inherit;fillColor=none;align=center;whiteSpace=wrap;html=1;fontSize=9;" parent="AH4Sky3rlhgojyti313X-163" vertex="1">
          <mxGeometry x="217" width="90" height="40" as="geometry">
            <mxRectangle width="90" height="40" as="alternateBounds" />
          </mxGeometry>
        </mxCell>
        <mxCell id="AH4Sky3rlhgojyti313X-218" value="10-24-30" style="connectable=0;recursiveResize=0;strokeColor=inherit;fillColor=none;align=center;whiteSpace=wrap;html=1;fontSize=9;" parent="AH4Sky3rlhgojyti313X-163" vertex="1">
          <mxGeometry x="307" width="60" height="40" as="geometry">
            <mxRectangle width="60" height="40" as="alternateBounds" />
          </mxGeometry>
        </mxCell>
        <mxCell id="AH4Sky3rlhgojyti313X-222" value="&lt;b&gt;chi@ya.ru&lt;/b&gt;" style="connectable=0;recursiveResize=0;strokeColor=inherit;fillColor=none;align=center;whiteSpace=wrap;html=1;fontSize=9;" parent="AH4Sky3rlhgojyti313X-163" vertex="1">
          <mxGeometry x="367" width="70" height="40" as="geometry">
            <mxRectangle width="70" height="40" as="alternateBounds" />
          </mxGeometry>
        </mxCell>
        <mxCell id="AH4Sky3rlhgojyti313X-170" value="..." style="connectable=0;recursiveResize=0;strokeColor=inherit;fillColor=none;align=center;whiteSpace=wrap;html=1;fontSize=19;" parent="AH4Sky3rlhgojyti313X-163" vertex="1">
          <mxGeometry x="437" width="40" height="40" as="geometry">
            <mxRectangle width="40" height="40" as="alternateBounds" />
          </mxGeometry>
        </mxCell>
        <mxCell id="AH4Sky3rlhgojyti313X-171" style="shape=tableRow;horizontal=0;startSize=0;swimlaneHead=0;swimlaneBody=0;top=0;left=0;bottom=0;right=0;dropTarget=0;collapsible=0;recursiveResize=0;expand=0;fontStyle=0;fillColor=none;strokeColor=inherit;fontSize=9;" parent="AH4Sky3rlhgojyti313X-154" vertex="1">
          <mxGeometry y="70" width="477" height="40" as="geometry" />
        </mxCell>
        <mxCell id="AH4Sky3rlhgojyti313X-172" value="2" style="connectable=0;recursiveResize=0;strokeColor=inherit;fillColor=none;align=center;whiteSpace=wrap;html=1;fontSize=9;" parent="AH4Sky3rlhgojyti313X-171" vertex="1">
          <mxGeometry width="36" height="40" as="geometry">
            <mxRectangle width="36" height="40" as="alternateBounds" />
          </mxGeometry>
        </mxCell>
        <mxCell id="AH4Sky3rlhgojyti313X-173" value="Huang" style="connectable=0;recursiveResize=0;strokeColor=inherit;fillColor=none;align=center;whiteSpace=wrap;html=1;fontSize=9;" parent="AH4Sky3rlhgojyti313X-171" vertex="1">
          <mxGeometry x="36" width="50" height="40" as="geometry">
            <mxRectangle width="50" height="40" as="alternateBounds" />
          </mxGeometry>
        </mxCell>
        <mxCell id="AH4Sky3rlhgojyti313X-174" value="m" style="connectable=0;recursiveResize=0;strokeColor=inherit;fillColor=none;align=center;whiteSpace=wrap;html=1;fontSize=9;" parent="AH4Sky3rlhgojyti313X-171" vertex="1">
          <mxGeometry x="86" width="41" height="40" as="geometry">
            <mxRectangle width="41" height="40" as="alternateBounds" />
          </mxGeometry>
        </mxCell>
        <mxCell id="AH4Sky3rlhgojyti313X-175" value="1823" style="connectable=0;recursiveResize=0;strokeColor=inherit;fillColor=none;align=center;whiteSpace=wrap;html=1;fontSize=9;" parent="AH4Sky3rlhgojyti313X-171" vertex="1">
          <mxGeometry x="127" width="40" height="40" as="geometry">
            <mxRectangle width="40" height="40" as="alternateBounds" />
          </mxGeometry>
        </mxCell>
        <mxCell id="AH4Sky3rlhgojyti313X-176" value="manager" style="connectable=0;recursiveResize=0;strokeColor=inherit;fillColor=none;align=center;whiteSpace=wrap;html=1;fontSize=9;" parent="AH4Sky3rlhgojyti313X-171" vertex="1">
          <mxGeometry x="167" width="50" height="40" as="geometry">
            <mxRectangle width="50" height="40" as="alternateBounds" />
          </mxGeometry>
        </mxCell>
        <mxCell id="AH4Sky3rlhgojyti313X-177" value="Margelova 30 - 45" style="connectable=0;recursiveResize=0;strokeColor=inherit;fillColor=none;align=center;whiteSpace=wrap;html=1;fontSize=9;" parent="AH4Sky3rlhgojyti313X-171" vertex="1">
          <mxGeometry x="217" width="90" height="40" as="geometry">
            <mxRectangle width="90" height="40" as="alternateBounds" />
          </mxGeometry>
        </mxCell>
        <mxCell id="AH4Sky3rlhgojyti313X-219" value="53-16-80" style="connectable=0;recursiveResize=0;strokeColor=inherit;fillColor=none;align=center;whiteSpace=wrap;html=1;fontSize=9;" parent="AH4Sky3rlhgojyti313X-171" vertex="1">
          <mxGeometry x="307" width="60" height="40" as="geometry">
            <mxRectangle width="60" height="40" as="alternateBounds" />
          </mxGeometry>
        </mxCell>
        <mxCell id="AH4Sky3rlhgojyti313X-223" value="huang@ya.ru" style="connectable=0;recursiveResize=0;strokeColor=inherit;fillColor=none;align=center;whiteSpace=wrap;html=1;fontSize=9;" parent="AH4Sky3rlhgojyti313X-171" vertex="1">
          <mxGeometry x="367" width="70" height="40" as="geometry">
            <mxRectangle width="70" height="40" as="alternateBounds" />
          </mxGeometry>
        </mxCell>
        <mxCell id="AH4Sky3rlhgojyti313X-178" value="..." style="connectable=0;recursiveResize=0;strokeColor=inherit;fillColor=none;align=center;whiteSpace=wrap;html=1;fontSize=19;" parent="AH4Sky3rlhgojyti313X-171" vertex="1">
          <mxGeometry x="437" width="40" height="40" as="geometry">
            <mxRectangle width="40" height="40" as="alternateBounds" />
          </mxGeometry>
        </mxCell>
        <mxCell id="AH4Sky3rlhgojyti313X-187" style="shape=tableRow;horizontal=0;startSize=0;swimlaneHead=0;swimlaneBody=0;top=0;left=0;bottom=0;right=0;dropTarget=0;collapsible=0;recursiveResize=0;expand=0;fontStyle=0;fillColor=none;strokeColor=inherit;fontSize=9;" parent="AH4Sky3rlhgojyti313X-154" vertex="1">
          <mxGeometry y="110" width="477" height="30" as="geometry" />
        </mxCell>
        <mxCell id="AH4Sky3rlhgojyti313X-188" value="-" style="connectable=0;recursiveResize=0;strokeColor=inherit;fillColor=none;align=center;whiteSpace=wrap;html=1;fontSize=9;" parent="AH4Sky3rlhgojyti313X-187" vertex="1">
          <mxGeometry width="36" height="30" as="geometry">
            <mxRectangle width="36" height="30" as="alternateBounds" />
          </mxGeometry>
        </mxCell>
        <mxCell id="AH4Sky3rlhgojyti313X-189" value="-" style="connectable=0;recursiveResize=0;strokeColor=inherit;fillColor=none;align=center;whiteSpace=wrap;html=1;fontSize=9;" parent="AH4Sky3rlhgojyti313X-187" vertex="1">
          <mxGeometry x="36" width="50" height="30" as="geometry">
            <mxRectangle width="50" height="30" as="alternateBounds" />
          </mxGeometry>
        </mxCell>
        <mxCell id="AH4Sky3rlhgojyti313X-190" value="-" style="connectable=0;recursiveResize=0;strokeColor=inherit;fillColor=none;align=center;whiteSpace=wrap;html=1;fontSize=9;" parent="AH4Sky3rlhgojyti313X-187" vertex="1">
          <mxGeometry x="86" width="41" height="30" as="geometry">
            <mxRectangle width="41" height="30" as="alternateBounds" />
          </mxGeometry>
        </mxCell>
        <mxCell id="AH4Sky3rlhgojyti313X-191" value="-" style="connectable=0;recursiveResize=0;strokeColor=inherit;fillColor=none;align=center;whiteSpace=wrap;html=1;fontSize=9;" parent="AH4Sky3rlhgojyti313X-187" vertex="1">
          <mxGeometry x="127" width="40" height="30" as="geometry">
            <mxRectangle width="40" height="30" as="alternateBounds" />
          </mxGeometry>
        </mxCell>
        <mxCell id="AH4Sky3rlhgojyti313X-192" value="-" style="connectable=0;recursiveResize=0;strokeColor=inherit;fillColor=none;align=center;whiteSpace=wrap;html=1;fontSize=9;" parent="AH4Sky3rlhgojyti313X-187" vertex="1">
          <mxGeometry x="167" width="50" height="30" as="geometry">
            <mxRectangle width="50" height="30" as="alternateBounds" />
          </mxGeometry>
        </mxCell>
        <mxCell id="AH4Sky3rlhgojyti313X-193" value="-" style="connectable=0;recursiveResize=0;strokeColor=inherit;fillColor=none;align=center;whiteSpace=wrap;html=1;fontSize=9;" parent="AH4Sky3rlhgojyti313X-187" vertex="1">
          <mxGeometry x="217" width="90" height="30" as="geometry">
            <mxRectangle width="90" height="30" as="alternateBounds" />
          </mxGeometry>
        </mxCell>
        <mxCell id="AH4Sky3rlhgojyti313X-220" value="-" style="connectable=0;recursiveResize=0;strokeColor=inherit;fillColor=none;align=center;whiteSpace=wrap;html=1;fontSize=9;" parent="AH4Sky3rlhgojyti313X-187" vertex="1">
          <mxGeometry x="307" width="60" height="30" as="geometry">
            <mxRectangle width="60" height="30" as="alternateBounds" />
          </mxGeometry>
        </mxCell>
        <mxCell id="AH4Sky3rlhgojyti313X-224" value="-" style="connectable=0;recursiveResize=0;strokeColor=inherit;fillColor=none;align=center;whiteSpace=wrap;html=1;fontSize=9;" parent="AH4Sky3rlhgojyti313X-187" vertex="1">
          <mxGeometry x="367" width="70" height="30" as="geometry">
            <mxRectangle width="70" height="30" as="alternateBounds" />
          </mxGeometry>
        </mxCell>
        <mxCell id="AH4Sky3rlhgojyti313X-194" value="-" style="connectable=0;recursiveResize=0;strokeColor=inherit;fillColor=none;align=center;whiteSpace=wrap;html=1;fontSize=9;" parent="AH4Sky3rlhgojyti313X-187" vertex="1">
          <mxGeometry x="437" width="40" height="30" as="geometry">
            <mxRectangle width="40" height="30" as="alternateBounds" />
          </mxGeometry>
        </mxCell>
        <mxCell id="AH4Sky3rlhgojyti313X-195" value="Employees" style="text;html=1;align=center;verticalAlign=middle;resizable=0;points=[];autosize=1;strokeColor=none;fillColor=none;" parent="1" vertex="1">
          <mxGeometry x="305" y="525" width="80" height="30" as="geometry" />
        </mxCell>
        <mxCell id="AH4Sky3rlhgojyti313X-197" value="City" style="text;html=1;align=center;verticalAlign=middle;resizable=0;points=[];autosize=1;strokeColor=none;fillColor=none;" parent="1" vertex="1">
          <mxGeometry x="942" y="121" width="40" height="30" as="geometry" />
        </mxCell>
        <mxCell id="AH4Sky3rlhgojyti313X-199" value="" style="verticalLabelPosition=bottom;verticalAlign=top;html=1;shape=mxgraph.basic.rect;fillColor2=none;strokeWidth=1;size=20;indent=5;" parent="1" vertex="1">
          <mxGeometry x="999" y="125" width="69" height="20" as="geometry" />
        </mxCell>
        <mxCell id="AH4Sky3rlhgojyti313X-208" value="Address" style="text;html=1;align=center;verticalAlign=middle;resizable=0;points=[];autosize=1;strokeColor=none;fillColor=none;" parent="1" vertex="1">
          <mxGeometry x="937" y="155" width="70" height="30" as="geometry" />
        </mxCell>
        <mxCell id="AH4Sky3rlhgojyti313X-209" value="" style="verticalLabelPosition=bottom;verticalAlign=top;html=1;shape=mxgraph.basic.rect;fillColor2=none;strokeWidth=1;size=20;indent=5;" parent="1" vertex="1">
          <mxGeometry x="1001" y="160" width="67" height="20" as="geometry" />
        </mxCell>
        <mxCell id="AH4Sky3rlhgojyti313X-210" value="Zip" style="text;html=1;align=center;verticalAlign=middle;resizable=0;points=[];autosize=1;strokeColor=none;fillColor=none;" parent="1" vertex="1">
          <mxGeometry x="1078" y="120" width="40" height="30" as="geometry" />
        </mxCell>
        <mxCell id="AH4Sky3rlhgojyti313X-211" value="" style="verticalLabelPosition=bottom;verticalAlign=top;html=1;shape=mxgraph.basic.rect;fillColor2=none;strokeWidth=1;size=20;indent=5;" parent="1" vertex="1">
          <mxGeometry x="1128" y="125" width="90" height="20" as="geometry" />
        </mxCell>
        <mxCell id="AH4Sky3rlhgojyti313X-212" value="Phone" style="text;html=1;align=center;verticalAlign=middle;resizable=0;points=[];autosize=1;strokeColor=none;fillColor=none;" parent="1" vertex="1">
          <mxGeometry x="1068" y="150" width="60" height="30" as="geometry" />
        </mxCell>
        <mxCell id="AH4Sky3rlhgojyti313X-213" value="" style="verticalLabelPosition=bottom;verticalAlign=top;html=1;shape=mxgraph.basic.rect;fillColor2=none;strokeWidth=1;size=20;indent=5;" parent="1" vertex="1">
          <mxGeometry x="1128" y="160" width="90" height="20" as="geometry" />
        </mxCell>
        <mxCell id="AH4Sky3rlhgojyti313X-214" value="Email" style="text;html=1;align=center;verticalAlign=middle;resizable=0;points=[];autosize=1;strokeColor=none;fillColor=none;" parent="1" vertex="1">
          <mxGeometry x="1010.5" y="205" width="50" height="30" as="geometry" />
        </mxCell>
        <mxCell id="AH4Sky3rlhgojyti313X-215" value="" style="verticalLabelPosition=bottom;verticalAlign=top;html=1;shape=mxgraph.basic.rect;fillColor2=none;strokeWidth=1;size=20;indent=5;" parent="1" vertex="1">
          <mxGeometry x="1065.5" y="210" width="120" height="20" as="geometry" />
        </mxCell>
        <mxCell id="AH4Sky3rlhgojyti313X-216" value="Change" style="labelPosition=center;verticalLabelPosition=middle;align=center;html=1;shape=mxgraph.basic.button;dx=5.19;whiteSpace=wrap;" parent="1" vertex="1">
          <mxGeometry x="635" y="490" width="76" height="30" as="geometry" />
        </mxCell>
        <mxCell id="AH4Sky3rlhgojyti313X-225" value="&lt;span style=&quot;color: rgb(240, 240, 240); font-family: Helvetica; font-size: 16px; font-style: normal; font-variant-ligatures: normal; font-variant-caps: normal; font-weight: 400; letter-spacing: normal; orphans: 2; text-indent: 0px; text-transform: none; widows: 2; word-spacing: 0px; -webkit-text-stroke-width: 0px; white-space: nowrap; background-color: rgb(27, 29, 30); text-decoration-thickness: initial; text-decoration-style: initial; text-decoration-color: initial; float: none; display: inline !important;&quot;&gt;Employee&lt;/span&gt;" style="text;whiteSpace=wrap;html=1;fontSize=16;align=center;" parent="1" vertex="1">
          <mxGeometry x="1064" y="415" width="86" height="30" as="geometry" />
        </mxCell>
        <mxCell id="AH4Sky3rlhgojyti313X-227" value="&lt;font style=&quot;font-size: 10px;&quot;&gt;Firstname&lt;/font&gt;" style="text;html=1;align=center;verticalAlign=middle;resizable=0;points=[];autosize=1;strokeColor=none;fillColor=none;" parent="1" vertex="1">
          <mxGeometry x="855" y="453" width="70" height="30" as="geometry" />
        </mxCell>
        <mxCell id="AH4Sky3rlhgojyti313X-228" value="&lt;font style=&quot;font-size: 10px;&quot;&gt;Lastname&lt;/font&gt;" style="text;html=1;align=center;verticalAlign=middle;resizable=0;points=[];autosize=1;strokeColor=none;fillColor=none;" parent="1" vertex="1">
          <mxGeometry x="1180" y="453" width="70" height="30" as="geometry" />
        </mxCell>
        <mxCell id="AH4Sky3rlhgojyti313X-229" value="&lt;font style=&quot;font-size: 10px;&quot;&gt;Middlename&lt;/font&gt;" style="text;html=1;align=center;verticalAlign=middle;resizable=0;points=[];autosize=1;strokeColor=none;fillColor=none;" parent="1" vertex="1">
          <mxGeometry x="1020" y="453" width="80" height="30" as="geometry" />
        </mxCell>
        <mxCell id="AH4Sky3rlhgojyti313X-230" value="" style="verticalLabelPosition=bottom;verticalAlign=top;html=1;shape=mxgraph.basic.rect;fillColor2=none;strokeWidth=1;size=20;indent=5;" parent="1" vertex="1">
          <mxGeometry x="933" y="458" width="69" height="20" as="geometry" />
        </mxCell>
        <mxCell id="AH4Sky3rlhgojyti313X-231" value="" style="verticalLabelPosition=bottom;verticalAlign=top;html=1;shape=mxgraph.basic.rect;fillColor2=none;strokeWidth=1;size=20;indent=5;" parent="1" vertex="1">
          <mxGeometry x="1100" y="458" width="69" height="20" as="geometry" />
        </mxCell>
        <mxCell id="AH4Sky3rlhgojyti313X-232" value="" style="verticalLabelPosition=bottom;verticalAlign=top;html=1;shape=mxgraph.basic.rect;fillColor2=none;strokeWidth=1;size=20;indent=5;" parent="1" vertex="1">
          <mxGeometry x="1250" y="458" width="69" height="20" as="geometry" />
        </mxCell>
        <mxCell id="AH4Sky3rlhgojyti313X-246" value="&lt;font style=&quot;font-size: 10px;&quot;&gt;Sex&lt;/font&gt;" style="text;html=1;align=center;verticalAlign=middle;resizable=0;points=[];autosize=1;strokeColor=none;fillColor=none;" parent="1" vertex="1">
          <mxGeometry x="870" y="483" width="40" height="30" as="geometry" />
        </mxCell>
        <mxCell id="AH4Sky3rlhgojyti313X-247" value="&lt;font style=&quot;font-size: 10px;&quot;&gt;Exp&lt;/font&gt;" style="text;html=1;align=center;verticalAlign=middle;resizable=0;points=[];autosize=1;strokeColor=none;fillColor=none;" parent="1" vertex="1">
          <mxGeometry x="1195" y="483" width="40" height="30" as="geometry" />
        </mxCell>
        <mxCell id="AH4Sky3rlhgojyti313X-248" value="&lt;font style=&quot;font-size: 10px;&quot;&gt;Birth&lt;/font&gt;" style="text;html=1;align=center;verticalAlign=middle;resizable=0;points=[];autosize=1;strokeColor=none;fillColor=none;" parent="1" vertex="1">
          <mxGeometry x="1040" y="483" width="40" height="30" as="geometry" />
        </mxCell>
        <mxCell id="AH4Sky3rlhgojyti313X-249" value="" style="verticalLabelPosition=bottom;verticalAlign=top;html=1;shape=mxgraph.basic.rect;fillColor2=none;strokeWidth=1;size=20;indent=5;" parent="1" vertex="1">
          <mxGeometry x="933" y="488" width="69" height="20" as="geometry" />
        </mxCell>
        <mxCell id="AH4Sky3rlhgojyti313X-250" value="" style="verticalLabelPosition=bottom;verticalAlign=top;html=1;shape=mxgraph.basic.rect;fillColor2=none;strokeWidth=1;size=20;indent=5;" parent="1" vertex="1">
          <mxGeometry x="1100" y="488" width="69" height="20" as="geometry" />
        </mxCell>
        <mxCell id="AH4Sky3rlhgojyti313X-251" value="" style="verticalLabelPosition=bottom;verticalAlign=top;html=1;shape=mxgraph.basic.rect;fillColor2=none;strokeWidth=1;size=20;indent=5;" parent="1" vertex="1">
          <mxGeometry x="1250" y="488" width="69" height="20" as="geometry" />
        </mxCell>
        <mxCell id="AH4Sky3rlhgojyti313X-252" value="&lt;font style=&quot;font-size: 10px;&quot;&gt;Address&lt;/font&gt;" style="text;html=1;align=center;verticalAlign=middle;resizable=0;points=[];autosize=1;strokeColor=none;fillColor=none;" parent="1" vertex="1">
          <mxGeometry x="860" y="513" width="60" height="30" as="geometry" />
        </mxCell>
        <mxCell id="AH4Sky3rlhgojyti313X-253" value="&lt;font style=&quot;font-size: 10px;&quot;&gt;Email&lt;/font&gt;" style="text;html=1;align=center;verticalAlign=middle;resizable=0;points=[];autosize=1;strokeColor=none;fillColor=none;" parent="1" vertex="1">
          <mxGeometry x="1190" y="513" width="50" height="30" as="geometry" />
        </mxCell>
        <mxCell id="AH4Sky3rlhgojyti313X-254" value="&lt;font style=&quot;font-size: 10px;&quot;&gt;Phone&lt;/font&gt;" style="text;html=1;align=center;verticalAlign=middle;resizable=0;points=[];autosize=1;strokeColor=none;fillColor=none;" parent="1" vertex="1">
          <mxGeometry x="1035" y="513" width="50" height="30" as="geometry" />
        </mxCell>
        <mxCell id="AH4Sky3rlhgojyti313X-255" value="" style="verticalLabelPosition=bottom;verticalAlign=top;html=1;shape=mxgraph.basic.rect;fillColor2=none;strokeWidth=1;size=20;indent=5;" parent="1" vertex="1">
          <mxGeometry x="933" y="518" width="69" height="20" as="geometry" />
        </mxCell>
        <mxCell id="AH4Sky3rlhgojyti313X-256" value="" style="verticalLabelPosition=bottom;verticalAlign=top;html=1;shape=mxgraph.basic.rect;fillColor2=none;strokeWidth=1;size=20;indent=5;" parent="1" vertex="1">
          <mxGeometry x="1100" y="518" width="69" height="20" as="geometry" />
        </mxCell>
        <mxCell id="AH4Sky3rlhgojyti313X-257" value="" style="verticalLabelPosition=bottom;verticalAlign=top;html=1;shape=mxgraph.basic.rect;fillColor2=none;strokeWidth=1;size=20;indent=5;" parent="1" vertex="1">
          <mxGeometry x="1250" y="518" width="69" height="20" as="geometry" />
        </mxCell>
        <mxCell id="AH4Sky3rlhgojyti313X-258" value="Save" style="labelPosition=center;verticalLabelPosition=middle;align=center;html=1;shape=mxgraph.basic.button;dx=5.19;whiteSpace=wrap;" parent="1" vertex="1">
          <mxGeometry x="1219" y="565" width="100" height="40" as="geometry" />
        </mxCell>
        <mxCell id="AH4Sky3rlhgojyti313X-259" value="&lt;font style=&quot;font-size: 10px;&quot;&gt;Set Pass&lt;/font&gt;" style="text;html=1;align=center;verticalAlign=middle;resizable=0;points=[];autosize=1;strokeColor=none;fillColor=none;" parent="1" vertex="1">
          <mxGeometry x="910" y="615" width="60" height="30" as="geometry" />
        </mxCell>
        <mxCell id="AH4Sky3rlhgojyti313X-260" value="" style="verticalLabelPosition=bottom;verticalAlign=top;html=1;shape=mxgraph.basic.rect;fillColor2=none;strokeWidth=1;size=20;indent=5;" parent="1" vertex="1">
          <mxGeometry x="983" y="620" width="69" height="20" as="geometry" />
        </mxCell>
        <mxCell id="AH4Sky3rlhgojyti313X-261" value="&lt;font style=&quot;font-size: 10px;&quot;&gt;Confirm&lt;/font&gt;" style="text;html=1;align=center;verticalAlign=middle;resizable=0;points=[];autosize=1;strokeColor=none;fillColor=none;" parent="1" vertex="1">
          <mxGeometry x="910" y="649" width="60" height="30" as="geometry" />
        </mxCell>
        <mxCell id="AH4Sky3rlhgojyti313X-262" value="" style="verticalLabelPosition=bottom;verticalAlign=top;html=1;shape=mxgraph.basic.rect;fillColor2=none;strokeWidth=1;size=20;indent=5;" parent="1" vertex="1">
          <mxGeometry x="983" y="654" width="69" height="20" as="geometry" />
        </mxCell>
        <mxCell id="AH4Sky3rlhgojyti313X-263" value="Save Pass" style="labelPosition=center;verticalLabelPosition=middle;align=center;html=1;shape=mxgraph.basic.button;dx=5.19;whiteSpace=wrap;" parent="1" vertex="1">
          <mxGeometry x="1076" y="649" width="91" height="25" as="geometry" />
        </mxCell>
        <mxCell id="AH4Sky3rlhgojyti313X-264" value="Add new" style="labelPosition=center;verticalLabelPosition=middle;align=center;html=1;shape=mxgraph.basic.button;dx=2.75;whiteSpace=wrap;fontSize=8;" parent="1" vertex="1">
          <mxGeometry x="730" y="535" width="50" height="20" as="geometry" />
        </mxCell>
        <mxCell id="AH4Sky3rlhgojyti313X-265" value="Add new" style="labelPosition=center;verticalLabelPosition=middle;align=center;html=1;shape=mxgraph.basic.button;dx=2.75;whiteSpace=wrap;fontSize=8;" parent="1" vertex="1">
          <mxGeometry x="720" y="110" width="50" height="20" as="geometry" />
        </mxCell>
        <mxCell id="lKEKLBZj1fZ_7uluffBy-1" value="&lt;font style=&quot;font-size: 10px;&quot;&gt;Employment&lt;/font&gt;" style="text;html=1;align=center;verticalAlign=middle;resizable=0;points=[];autosize=1;strokeColor=none;fillColor=none;" parent="1" vertex="1">
          <mxGeometry x="853" y="549" width="80" height="30" as="geometry" />
        </mxCell>
        <mxCell id="lKEKLBZj1fZ_7uluffBy-2" value="" style="verticalLabelPosition=bottom;verticalAlign=top;html=1;shape=mxgraph.basic.rect;fillColor2=none;strokeWidth=1;size=20;indent=5;" parent="1" vertex="1">
          <mxGeometry x="933" y="554" width="69" height="20" as="geometry" />
        </mxCell>
        <mxCell id="lKEKLBZj1fZ_7uluffBy-3" value="" style="verticalLabelPosition=bottom;verticalAlign=top;html=1;shape=mxgraph.basic.frame;dx=10;whiteSpace=wrap;" parent="1" vertex="1">
          <mxGeometry x="827" y="30" width="520" height="320" as="geometry" />
        </mxCell>
        <mxCell id="lKEKLBZj1fZ_7uluffBy-4" value="New department" style="text;html=1;align=center;verticalAlign=middle;resizable=0;points=[];autosize=1;strokeColor=none;fillColor=none;fontSize=19;" parent="1" vertex="1">
          <mxGeometry x="1012.5" y="55" width="160" height="40" as="geometry" />
        </mxCell>
        <mxCell id="lKEKLBZj1fZ_7uluffBy-6" value="Sity" style="text;html=1;align=center;verticalAlign=middle;resizable=0;points=[];autosize=1;strokeColor=none;fillColor=none;" parent="1" vertex="1">
          <mxGeometry x="309" y="451" width="40" height="30" as="geometry" />
        </mxCell>
        <mxCell id="lKEKLBZj1fZ_7uluffBy-7" value="" style="verticalLabelPosition=bottom;verticalAlign=top;html=1;shape=mxgraph.basic.rect;fillColor2=none;strokeWidth=1;size=20;indent=5;" parent="1" vertex="1">
          <mxGeometry x="366" y="455" width="69" height="20" as="geometry" />
        </mxCell>
        <mxCell id="lKEKLBZj1fZ_7uluffBy-8" value="Address" style="text;html=1;align=center;verticalAlign=middle;resizable=0;points=[];autosize=1;strokeColor=none;fillColor=none;" parent="1" vertex="1">
          <mxGeometry x="304" y="485" width="70" height="30" as="geometry" />
        </mxCell>
        <mxCell id="lKEKLBZj1fZ_7uluffBy-9" value="" style="verticalLabelPosition=bottom;verticalAlign=top;html=1;shape=mxgraph.basic.rect;fillColor2=none;strokeWidth=1;size=20;indent=5;" parent="1" vertex="1">
          <mxGeometry x="368" y="490" width="67" height="20" as="geometry" />
        </mxCell>
        <mxCell id="lKEKLBZj1fZ_7uluffBy-10" value="Zip" style="text;html=1;align=center;verticalAlign=middle;resizable=0;points=[];autosize=1;strokeColor=none;fillColor=none;" parent="1" vertex="1">
          <mxGeometry x="445" y="450" width="40" height="30" as="geometry" />
        </mxCell>
        <mxCell id="lKEKLBZj1fZ_7uluffBy-11" value="" style="verticalLabelPosition=bottom;verticalAlign=top;html=1;shape=mxgraph.basic.rect;fillColor2=none;strokeWidth=1;size=20;indent=5;" parent="1" vertex="1">
          <mxGeometry x="495" y="455" width="90" height="20" as="geometry" />
        </mxCell>
        <mxCell id="lKEKLBZj1fZ_7uluffBy-12" value="Phone" style="text;html=1;align=center;verticalAlign=middle;resizable=0;points=[];autosize=1;strokeColor=none;fillColor=none;" parent="1" vertex="1">
          <mxGeometry x="435" y="480" width="60" height="30" as="geometry" />
        </mxCell>
        <mxCell id="lKEKLBZj1fZ_7uluffBy-13" value="" style="verticalLabelPosition=bottom;verticalAlign=top;html=1;shape=mxgraph.basic.rect;fillColor2=none;strokeWidth=1;size=20;indent=5;" parent="1" vertex="1">
          <mxGeometry x="495" y="490" width="90" height="20" as="geometry" />
        </mxCell>
        <mxCell id="lKEKLBZj1fZ_7uluffBy-14" value="Email" style="text;html=1;align=center;verticalAlign=middle;resizable=0;points=[];autosize=1;strokeColor=none;fillColor=none;" parent="1" vertex="1">
          <mxGeometry x="600" y="450" width="50" height="30" as="geometry" />
        </mxCell>
        <mxCell id="lKEKLBZj1fZ_7uluffBy-15" value="" style="verticalLabelPosition=bottom;verticalAlign=top;html=1;shape=mxgraph.basic.rect;fillColor2=none;strokeWidth=1;size=20;indent=5;" parent="1" vertex="1">
          <mxGeometry x="655" y="455" width="120" height="20" as="geometry" />
        </mxCell>
        <mxCell id="lKEKLBZj1fZ_7uluffBy-16" value="Save" style="labelPosition=center;verticalLabelPosition=middle;align=center;html=1;shape=mxgraph.basic.button;dx=5.19;whiteSpace=wrap;" parent="1" vertex="1">
          <mxGeometry x="1185.5" y="265" width="76" height="30" as="geometry" />
        </mxCell>
      </root>
    </mxGraphModel>
  </diagram>
</mxfile>
